NotoSansHanifiRohingya-Regular.ufo
<glyph name="kashida.ar" format="2">
  <advance width="250"/>
  <unicode hex="0640"/>
  <outline>
    <contour>
      <point x="51" y="0" type="line"/>
      <point x="284" y="0" type="line"/>
      <point x="284" y="78" type="line"/>
      <point x="51" y="78" type="line"/>
    </contour>
    <contour>
      <point x="43" y="0" type="curve" smooth="yes"/>
      <point x="55" y="0" type="line"/>
      <point x="55" y="78" type="line"/>
      <point x="-25" y="78" type="line"/>
      <point x="-25" y="16" type="line"/>
      <point x="-14" y="10"/>
      <point x="17" y="0"/>
    </contour>
  </outline>
</glyph>
<glyph name="uni0660" format="2">
  <advance width="309"/>
  <unicode hex="0660"/>
  <note>
uni0660
</note>
  <outline>
    <contour>
      <point x="178" y="240" type="curve"/>
      <point x="215" y="294"/>
      <point x="233" y="325"/>
      <point x="233" y="334" type="curve" smooth="yes"/>
      <point x="233" y="339"/>
      <point x="227" y="346"/>
      <point x="214" y="359" type="curve" smooth="yes"/>
      <point x="201" y="372"/>
      <point x="174" y="390"/>
      <point x="132" y="414" type="curve"/>
      <point x="125" y="404"/>
      <point x="114" y="385"/>
      <point x="104" y="366" type="curve" smooth="yes"/>
      <point x="92" y="344"/>
      <point x="79" y="321"/>
      <point x="71" y="309" type="curve"/>
      <point x="109" y="288"/>
      <point x="145" y="265"/>
    </contour>
  </outline>
</glyph>
<glyph name="fullstop.ar" format="2">
  <advance width="268"/>
  <unicode hex="06D4"/>
  <outline>
    <contour>
      <point x="133" y="-14" type="curve" smooth="yes"/>
      <point x="167" y="-14"/>
      <point x="196" y="6"/>
      <point x="196" y="54" type="curve" smooth="yes"/>
      <point x="196" y="103"/>
      <point x="167" y="121"/>
      <point x="133" y="121" type="curve" smooth="yes"/>
      <point x="99" y="121"/>
      <point x="72" y="103"/>
      <point x="72" y="54" type="curve" smooth="yes"/>
      <point x="72" y="6"/>
      <point x="99" y="-14"/>
    </contour>
  </outline>
</glyph>
<glyph name="uni10D14" format="2">
  <advance width="716"/>
  <unicode hex="10D14"/>
  <outline>
    <contour>
      <point x="285" y="0" type="curve" smooth="yes"/>
      <point x="350" y="0"/>
      <point x="413" y="51"/>
      <point x="462" y="122" type="curve" smooth="yes"/>
      <point x="600" y="323" type="line"/>
      <point x="527" y="312" type="line"/>
      <point x="558" y="292"/>
      <point x="597" y="255"/>
      <point x="597" y="174" type="curve" smooth="yes"/>
      <point x="597" y="109"/>
      <point x="556" y="78"/>
      <point x="490" y="78" type="curve" smooth="yes"/>
      <point x="448" y="78"/>
      <point x="423" y="93"/>
      <point x="393" y="116" type="curve"/>
      <point x="354" y="54" type="line"/>
      <point x="400" y="16"/>
      <point x="441" y="0"/>
      <point x="510" y="0" type="curve" smooth="yes"/>
      <point x="614" y="0"/>
      <point x="686" y="63"/>
      <point x="686" y="174" type="curve" smooth="yes"/>
      <point x="686" y="266"/>
      <point x="629" y="355"/>
      <point x="554" y="400" type="curve"/>
      <point x="394" y="170" type="line" smooth="yes"/>
      <point x="346" y="100"/>
      <point x="324" y="78"/>
      <point x="285" y="78" type="curve" smooth="yes"/>
      <point x="242" y="78"/>
      <point x="214" y="110"/>
      <point x="214" y="179" type="curve" smooth="yes"/>
      <point x="214" y="544" type="line" smooth="yes"/>
      <point x="214" y="620"/>
      <point x="246" y="636"/>
      <point x="277" y="636" type="curve" smooth="yes"/>
      <point x="311" y="636"/>
      <point x="338" y="609"/>
      <point x="338" y="569" type="curve" smooth="yes"/>
      <point x="338" y="527"/>
      <point x="305" y="501"/>
      <point x="246" y="501" type="curve" smooth="yes"/>
      <point x="18" y="501" type="line"/>
      <point x="18" y="423" type="line"/>
      <point x="249" y="423" type="line" smooth="yes"/>
      <point x="356" y="423"/>
      <point x="427" y="482"/>
      <point x="427" y="569" type="curve" smooth="yes"/>
      <point x="427" y="650"/>
      <point x="368" y="714"/>
      <point x="277" y="714" type="curve" smooth="yes"/>
      <point x="182" y="714"/>
      <point x="125" y="645"/>
      <point x="125" y="544" type="curve" smooth="yes"/>
      <point x="125" y="199" type="line" smooth="yes"/>
      <point x="125" y="81"/>
      <point x="182" y="0"/>
    </contour>
  </outline>
</glyph>
<glyph name="uni10D20" format="2">
  <advance width="413"/>
  <unicode hex="10D20"/>
  <outline>
    <contour>
      <point x="78" y="0" type="line"/>
      <point x="93" y="0" type="line" smooth="yes"/>
      <point x="217" y="0"/>
      <point x="283" y="82"/>
      <point x="283" y="247" type="curve" smooth="yes"/>
      <point x="283" y="323" type="line"/>
      <point x="194" y="323" type="line"/>
      <point x="194" y="247" type="line" smooth="yes"/>
      <point x="194" y="130"/>
      <point x="163" y="78"/>
      <point x="68" y="78" type="curve"/>
    </contour>
    <contour>
      <point x="78" y="0" type="curve" smooth="yes"/>
      <point x="90" y="0" type="line"/>
      <point x="90" y="78" type="line"/>
      <point x="10" y="78" type="line"/>
      <point x="10" y="16" type="line"/>
      <point x="21" y="10"/>
      <point x="52" y="0"/>
    </contour>
    <contour>
      <point x="330" y="-232" type="curve" smooth="yes"/>
      <point x="354" y="-232" type="line" smooth="yes"/>
      <point x="366" y="-232"/>
      <point x="392" y="-224"/>
      <point x="403" y="-216" type="curve"/>
      <point x="403" y="-154" type="line"/>
      <point x="340" y="-154" type="line" smooth="yes"/>
      <point x="291" y="-154"/>
      <point x="263" y="-124"/>
      <point x="263" y="-77" type="curve" smooth="yes"/>
      <point x="263" y="-53" type="line"/>
      <point x="174" y="-53" type="line"/>
      <point x="174" y="-77" type="line" smooth="yes"/>
      <point x="174" y="-176"/>
      <point x="238" y="-232"/>
    </contour>
  </outline>
</glyph>
<glyph name="uni10D22" format="2">
  <advance width="363"/>
  <unicode hex="10D22"/>
  <outline>
    <contour>
      <point x="78" y="0" type="line"/>
      <point x="93" y="0" type="line" smooth="yes"/>
      <point x="217" y="0"/>
      <point x="283" y="82"/>
      <point x="283" y="247" type="curve" smooth="yes"/>
      <point x="283" y="323" type="line"/>
      <point x="194" y="323" type="line"/>
      <point x="194" y="247" type="line" smooth="yes"/>
      <point x="194" y="130"/>
      <point x="163" y="78"/>
      <point x="68" y="78" type="curve"/>
    </contour>
    <contour>
      <point x="78" y="0" type="curve" smooth="yes"/>
      <point x="90" y="0" type="line"/>
      <point x="90" y="78" type="line"/>
      <point x="10" y="78" type="line"/>
      <point x="10" y="16" type="line"/>
      <point x="21" y="10"/>
      <point x="52" y="0"/>
    </contour>
  </outline>
</glyph>
<glyph name="uni10D23" format="2">
  <advance width="372"/>
  <unicode hex="10D23"/>
  <outline>
    <contour>
      <point x="78" y="0" type="line"/>
      <point x="93" y="0" type="line" smooth="yes"/>
      <point x="217" y="0"/>
      <point x="283" y="82"/>
      <point x="283" y="247" type="curve" smooth="yes"/>
      <point x="283" y="323" type="line"/>
      <point x="194" y="323" type="line"/>
      <point x="194" y="247" type="line" smooth="yes"/>
      <point x="194" y="130"/>
      <point x="163" y="78"/>
      <point x="68" y="78" type="curve"/>
    </contour>
    <contour>
      <point x="78" y="0" type="curve" smooth="yes"/>
      <point x="90" y="0" type="line"/>
      <point x="90" y="78" type="line"/>
      <point x="10" y="78" type="line"/>
      <point x="10" y="16" type="line"/>
      <point x="21" y="10"/>
      <point x="52" y="0"/>
    </contour>
    <contour>
      <point x="241" y="416" type="curve" smooth="yes"/>
      <point x="271" y="416"/>
      <point x="297" y="434"/>
      <point x="297" y="476" type="curve" smooth="yes"/>
      <point x="297" y="518"/>
      <point x="271" y="536"/>
      <point x="241" y="536" type="curve" smooth="yes"/>
      <point x="210" y="536"/>
      <point x="185" y="518"/>
      <point x="185" y="476" type="curve" smooth="yes"/>
      <point x="185" y="434"/>
      <point x="210" y="416"/>
    </contour>
  </outline>
</glyph>
<glyph name="uni10D24" format="2">
  <unicode hex="10D24"/>
  <outline>
    <contour>
      <point x="4" y="852" type="curve" smooth="yes"/>
      <point x="63" y="852"/>
      <point x="111" y="887"/>
      <point x="111" y="961" type="curve" smooth="yes"/>
      <point x="111" y="1039" type="line"/>
      <point x="40" y="1039" type="line"/>
      <point x="40" y="961" type="line" smooth="yes"/>
      <point x="40" y="936"/>
      <point x="24" y="916"/>
      <point x="-7" y="916" type="curve" smooth="yes"/>
      <point x="-37" y="916"/>
      <point x="-49" y="931"/>
      <point x="-58" y="947" type="curve"/>
      <point x="-81" y="888" type="line"/>
      <point x="-67" y="869"/>
      <point x="-35" y="852"/>
    </contour>
    <contour>
      <point x="-111" y="762" type="line"/>
      <point x="-40" y="762" type="line"/>
      <point x="-40" y="1039" type="line"/>
      <point x="-111" y="1039" type="line"/>
    </contour>
  </outline>
</glyph>
<glyph name="uni10D25" format="2">
  <unicode hex="10D25"/>
  <outline>
    <contour>
      <point x="-78" y="762" type="curve"/>
      <point x="16" y="762" type="line"/>
      <point x="46" y="779"/>
      <point x="78" y="816"/>
      <point x="78" y="850" type="curve" smooth="yes"/>
      <point x="78" y="878"/>
      <point x="62" y="902"/>
      <point x="42" y="920" type="curve" smooth="yes"/>
      <point x="22" y="938"/>
      <point x="0" y="958"/>
      <point x="0" y="976" type="curve" smooth="yes"/>
      <point x="0" y="996"/>
      <point x="25" y="1017"/>
      <point x="60" y="1039" type="curve"/>
      <point x="-28" y="1039" type="line"/>
      <point x="-51" y="1021"/>
      <point x="-77" y="992"/>
      <point x="-77" y="962" type="curve" smooth="yes"/>
      <point x="-77" y="936"/>
      <point x="-55" y="915"/>
      <point x="-36" y="897" type="curve" smooth="yes"/>
      <point x="-14" y="877"/>
      <point x="0" y="862"/>
      <point x="0" y="843" type="curve" smooth="yes"/>
      <point x="0" y="819"/>
      <point x="-44" y="785"/>
    </contour>
  </outline>
</glyph>
<glyph name="uni10D30" format="2">
  <advance width="531"/>
  <unicode hex="10D30"/>
  <outline>
    <contour>
      <point x="277" y="-10" type="curve" smooth="yes"/>
      <point x="425" y="-10"/>
      <point x="486" y="140"/>
      <point x="486" y="352" type="curve" smooth="yes"/>
      <point x="486" y="581"/>
      <point x="415" y="714"/>
      <point x="269" y="714" type="curve" smooth="yes"/>
      <point x="118" y="714"/>
      <point x="54" y="584"/>
      <point x="54" y="352" type="curve" smooth="yes"/>
      <point x="54" y="125"/>
      <point x="122" y="-10"/>
    </contour>
    <contour>
      <point x="273" y="68" type="curve" smooth="yes"/>
      <point x="178" y="68"/>
      <point x="142" y="162"/>
      <point x="142" y="350" type="curve" smooth="yes"/>
      <point x="142" y="541"/>
      <point x="176" y="636"/>
      <point x="269" y="636" type="curve" smooth="yes"/>
      <point x="361" y="636"/>
      <point x="397" y="541"/>
      <point x="397" y="350" type="curve" smooth="yes"/>
      <point x="397" y="168"/>
      <point x="361" y="68"/>
    </contour>
  </outline>
</glyph>
<glyph name="uni10D31" format="2">
  <advance width="265"/>
  <unicode hex="10D31"/>
  <outline>
    <contour>
      <point x="88" y="0" type="line"/>
      <point x="177" y="0" type="line"/>
      <point x="177" y="714" type="line"/>
      <point x="88" y="714" type="line"/>
    </contour>
  </outline>
</glyph>
<glyph name="uni10D32" format="2">
  <advance width="495"/>
  <unicode hex="10D32"/>
  <outline>
    <contour>
      <point x="273" y="0" type="curve"/>
      <point x="368" y="0" type="line"/>
      <point x="409" y="112"/>
      <point x="450" y="248"/>
      <point x="450" y="402" type="curve" smooth="yes"/>
      <point x="450" y="600"/>
      <point x="362" y="714"/>
      <point x="216" y="714" type="curve" smooth="yes"/>
      <point x="93" y="714"/>
      <point x="10" y="631"/>
      <point x="10" y="528" type="curve" smooth="yes"/>
      <point x="10" y="420"/>
      <point x="92" y="350"/>
      <point x="206" y="350" type="curve" smooth="yes"/>
      <point x="237" y="350" type="line"/>
      <point x="237" y="428" type="line"/>
      <point x="207" y="428" type="line" smooth="yes"/>
      <point x="138" y="428"/>
      <point x="99" y="468"/>
      <point x="99" y="528" type="curve" smooth="yes"/>
      <point x="99" y="592"/>
      <point x="146" y="636"/>
      <point x="216" y="636" type="curve" smooth="yes"/>
      <point x="302" y="636"/>
      <point x="361" y="552"/>
      <point x="361" y="402" type="curve" smooth="yes"/>
      <point x="361" y="252"/>
      <point x="317" y="114"/>
    </contour>
  </outline>
</glyph>
<glyph name="uni10D33" format="2">
  <advance width="537"/>
  <unicode hex="10D33"/>
  <outline>
    <contour>
      <point x="260" y="0" type="curve" smooth="yes"/>
      <point x="403" y="0"/>
      <point x="517" y="86"/>
      <point x="517" y="232" type="curve" smooth="yes"/>
      <point x="517" y="391"/>
      <point x="427" y="466"/>
      <point x="265" y="569" type="curve" smooth="yes"/>
      <point x="134" y="652" type="line"/>
      <point x="135" y="635" type="line"/>
      <point x="493" y="635" type="line"/>
      <point x="493" y="713" type="line"/>
      <point x="41" y="713" type="line"/>
      <point x="41" y="612" type="line"/>
      <point x="194" y="514" type="line" smooth="yes"/>
      <point x="349" y="415"/>
      <point x="428" y="356"/>
      <point x="428" y="232" type="curve" smooth="yes"/>
      <point x="428" y="137"/>
      <point x="364" y="78"/>
      <point x="260" y="78" type="curve" smooth="yes"/>
      <point x="163" y="78"/>
      <point x="99" y="124"/>
      <point x="99" y="193" type="curve" smooth="yes"/>
      <point x="99" y="252"/>
      <point x="139" y="289"/>
      <point x="209" y="289" type="curve" smooth="yes"/>
      <point x="265" y="289" type="line"/>
      <point x="265" y="366" type="line"/>
      <point x="203" y="366" type="line" smooth="yes"/>
      <point x="98" y="366"/>
      <point x="10" y="296"/>
      <point x="10" y="193" type="curve" smooth="yes"/>
      <point x="10" y="82"/>
      <point x="99" y="0"/>
    </contour>
  </outline>
</glyph>
<glyph name="uni10D34" format="2">
  <advance width="692"/>
  <unicode hex="10D34"/>
  <outline>
    <contour>
      <point x="235" y="0" type="curve" smooth="yes"/>
      <point x="347" y="0"/>
      <point x="398" y="83"/>
      <point x="398" y="220" type="curve"/>
      <point x="320" y="220" type="line"/>
      <point x="320" y="134"/>
      <point x="297" y="78"/>
      <point x="241" y="78" type="curve" smooth="yes"/>
      <point x="171" y="78"/>
      <point x="134" y="152"/>
      <point x="134" y="328" type="curve" smooth="yes"/>
      <point x="134" y="505"/>
      <point x="195" y="588"/>
      <point x="282" y="588" type="curve" smooth="yes"/>
      <point x="344" y="588"/>
      <point x="391" y="544"/>
      <point x="437" y="457" type="curve" smooth="yes"/>
      <point x="487" y="362"/>
      <point x="515" y="226"/>
      <point x="515" y="107" type="curve" smooth="yes"/>
      <point x="515" y="0" type="line"/>
      <point x="604" y="0" type="line"/>
      <point x="604" y="714" type="line"/>
      <point x="515" y="714" type="line"/>
      <point x="515" y="332" type="line"/>
      <point x="554" y="347" type="line"/>
      <point x="505" y="521"/>
      <point x="425" y="666"/>
      <point x="278" y="666" type="curve" smooth="yes"/>
      <point x="154" y="666"/>
      <point x="45" y="560"/>
      <point x="45" y="328" type="curve" smooth="yes"/>
      <point x="45" y="102"/>
      <point x="122" y="0"/>
    </contour>
  </outline>
</glyph>
<glyph name="uni10D35" format="2">
  <advance width="719"/>
  <unicode hex="10D35"/>
  <outline>
    <contour>
      <point x="337" y="1" type="curve" smooth="yes"/>
      <point x="538" y="1" type="line"/>
      <point x="538" y="79" type="line"/>
      <point x="426" y="79" type="line"/>
      <point x="426" y="113" type="line" smooth="yes"/>
      <point x="426" y="330"/>
      <point x="502" y="378"/>
      <point x="617" y="432" type="curve" smooth="yes"/>
      <point x="676" y="460"/>
      <point x="709" y="496"/>
      <point x="709" y="558" type="curve" smooth="yes"/>
      <point x="709" y="610"/>
      <point x="672" y="649"/>
      <point x="617" y="649" type="curve" smooth="yes"/>
      <point x="564" y="649"/>
      <point x="524" y="608"/>
      <point x="524" y="558" type="curve" smooth="yes"/>
      <point x="524" y="506"/>
      <point x="569" y="474"/>
      <point x="611" y="474" type="curve"/>
      <point x="583" y="497" type="line"/>
      <point x="435" y="434"/>
      <point x="337" y="339"/>
      <point x="337" y="113" type="curve" smooth="yes"/>
      <point x="337" y="81" type="line"/>
      <point x="220" y="81"/>
      <point x="99" y="176"/>
      <point x="99" y="356" type="curve" smooth="yes"/>
      <point x="99" y="504"/>
      <point x="182" y="619"/>
      <point x="340" y="714" type="curve"/>
      <point x="226" y="714" type="line"/>
      <point x="104" y="640"/>
      <point x="10" y="508"/>
      <point x="10" y="357" type="curve" smooth="yes"/>
      <point x="10" y="135"/>
      <point x="174" y="1"/>
    </contour>
  </outline>
</glyph>
<glyph name="uni10D36" format="2">
  <advance width="611"/>
  <unicode hex="10D36"/>
  <outline>
    <contour>
      <point x="253" y="0" type="curve" smooth="yes"/>
      <point x="413" y="0"/>
      <point x="523" y="94"/>
      <point x="523" y="332" type="curve" smooth="yes"/>
      <point x="523" y="713" type="line"/>
      <point x="81" y="713" type="line"/>
      <point x="81" y="635" type="line"/>
      <point x="434" y="635" type="line"/>
      <point x="434" y="332" type="line" smooth="yes"/>
      <point x="434" y="147"/>
      <point x="364" y="78"/>
      <point x="253" y="78" type="curve" smooth="yes"/>
      <point x="163" y="78"/>
      <point x="99" y="128"/>
      <point x="99" y="207" type="curve" smooth="yes"/>
      <point x="99" y="282"/>
      <point x="154" y="329"/>
      <point x="252" y="329" type="curve" smooth="yes"/>
      <point x="320" y="329" type="line"/>
      <point x="320" y="407" type="line"/>
      <point x="246" y="407" type="line" smooth="yes"/>
      <point x="107" y="407"/>
      <point x="10" y="325"/>
      <point x="10" y="207" type="curve" smooth="yes"/>
      <point x="10" y="89"/>
      <point x="99" y="0"/>
    </contour>
  </outline>
</glyph>
<glyph name="uni10D37" format="2">
  <advance width="724"/>
  <unicode hex="10D37"/>
  <outline>
    <contour>
      <point x="175" y="0" type="curve" smooth="yes"/>
      <point x="277" y="0"/>
      <point x="332" y="64"/>
      <point x="410" y="175" type="curve" smooth="yes"/>
      <point x="714" y="609" type="line"/>
      <point x="714" y="713" type="line"/>
      <point x="230" y="713" type="line"/>
      <point x="230" y="635" type="line"/>
      <point x="665" y="635" type="line"/>
      <point x="661" y="675" type="line"/>
      <point x="339" y="218" type="line" smooth="yes"/>
      <point x="273" y="124"/>
      <point x="232" y="78"/>
      <point x="175" y="78" type="curve" smooth="yes"/>
      <point x="126" y="78"/>
      <point x="99" y="106"/>
      <point x="99" y="145" type="curve" smooth="yes"/>
      <point x="99" y="185"/>
      <point x="125" y="213"/>
      <point x="169" y="213" type="curve" smooth="yes"/>
      <point x="224" y="213"/>
      <point x="255" y="185"/>
      <point x="316" y="117" type="curve" smooth="yes"/>
      <point x="374" y="52"/>
      <point x="444" y="0"/>
      <point x="534" y="0" type="curve" smooth="yes"/>
      <point x="608" y="0"/>
      <point x="668" y="33"/>
      <point x="714" y="73" type="curve"/>
      <point x="714" y="161" type="line"/>
      <point x="650" y="105"/>
      <point x="598" y="78"/>
      <point x="534" y="78" type="curve" smooth="yes"/>
      <point x="462" y="78"/>
      <point x="414" y="129"/>
      <point x="369" y="178" type="curve" smooth="yes"/>
      <point x="310" y="243"/>
      <point x="258" y="291"/>
      <point x="169" y="291" type="curve" smooth="yes"/>
      <point x="68" y="291"/>
      <point x="10" y="222"/>
      <point x="10" y="145" type="curve" smooth="yes"/>
      <point x="10" y="58"/>
      <point x="75" y="0"/>
    </contour>
  </outline>
</glyph>
<glyph name="uni10D39" format="2">
  <advance width="522"/>
  <unicode hex="10D39"/>
  <outline>
    <contour>
      <point x="273" y="2" type="line"/>
      <point x="358" y="2" type="line"/>
      <point x="512" y="159" type="line"/>
      <point x="512" y="272" type="line"/>
      <point x="339" y="99" type="line"/>
      <point x="362" y="104" type="line"/>
      <point x="362" y="536" type="line" smooth="yes"/>
      <point x="362" y="644"/>
      <point x="296" y="714"/>
      <point x="182" y="714" type="curve" smooth="yes"/>
      <point x="80" y="714"/>
      <point x="10" y="640"/>
      <point x="10" y="546" type="curve" smooth="yes"/>
      <point x="10" y="440"/>
      <point x="93" y="383"/>
      <point x="177" y="383" type="curve" smooth="yes"/>
      <point x="241" y="383"/>
      <point x="291" y="416"/>
      <point x="332" y="465" type="curve"/>
      <point x="280" y="518" type="line"/>
      <point x="266" y="486"/>
      <point x="224" y="461"/>
      <point x="186" y="461" type="curve" smooth="yes"/>
      <point x="140" y="461"/>
      <point x="99" y="490"/>
      <point x="99" y="546" type="curve" smooth="yes"/>
      <point x="99" y="595"/>
      <point x="129" y="636"/>
      <point x="183" y="636" type="curve" smooth="yes"/>
      <point x="236" y="636"/>
      <point x="273" y="600"/>
      <point x="273" y="533" type="curve" smooth="yes"/>
    </contour>
  </outline>
</glyph>
<glyph name="uni10D00.init" format="2">
  <advance width="488"/>
  <outline>
    <contour>
      <point x="39" y="0" type="line"/>
      <point x="124" y="0" type="line" smooth="yes"/>
      <point x="273" y="0"/>
      <point x="408" y="73"/>
      <point x="408" y="288" type="curve" smooth="yes"/>
      <point x="408" y="542" type="line" smooth="yes"/>
      <point x="408" y="656"/>
      <point x="354" y="714"/>
      <point x="270" y="714" type="curve" smooth="yes"/>
      <point x="186" y="714"/>
      <point x="130" y="656"/>
      <point x="130" y="542" type="curve" smooth="yes"/>
      <point x="130" y="191" type="line" smooth="yes"/>
      <point x="130" y="134"/>
      <point x="149" y="88"/>
      <point x="165" y="73" type="curve"/>
      <point x="235" y="79" type="line"/>
      <point x="215" y="116"/>
      <point x="209" y="152"/>
      <point x="209" y="191" type="curve" smooth="yes"/>
      <point x="209" y="542" type="line" smooth="yes"/>
      <point x="209" y="614"/>
      <point x="236" y="636"/>
      <point x="266" y="636" type="curve" smooth="yes"/>
      <point x="296" y="636"/>
      <point x="319" y="614"/>
      <point x="319" y="542" type="curve" smooth="yes"/>
      <point x="319" y="288" type="line" smooth="yes"/>
      <point x="319" y="119"/>
      <point x="224" y="78"/>
      <point x="128" y="78" type="curve" smooth="yes"/>
      <point x="39" y="78" type="line"/>
    </contour>
    <contour>
      <point x="34" y="0" type="curve" smooth="yes"/>
      <point x="46" y="0" type="line"/>
      <point x="46" y="78" type="line"/>
      <point x="-34" y="78" type="line"/>
      <point x="-34" y="16" type="line"/>
      <point x="-23" y="10"/>
      <point x="8" y="0"/>
    </contour>
  </outline>
</glyph>
<glyph name="uni10D01.medi" format="2">
  <advance width="401"/>
  <outline>
    <contour>
      <point x="40" y="0" type="line"/>
      <point x="63" y="0" type="line" smooth="yes"/>
      <point x="219" y="0"/>
      <point x="309" y="95"/>
      <point x="309" y="289" type="curve" smooth="yes"/>
      <point x="309" y="596" type="line" smooth="yes"/>
      <point x="309" y="677"/>
      <point x="256" y="713"/>
      <point x="187" y="713" type="curve" smooth="yes"/>
      <point x="71" y="713" type="line"/>
      <point x="71" y="635" type="line"/>
      <point x="220" y="635" type="line"/>
      <point x="220" y="289" type="line" smooth="yes"/>
      <point x="220" y="137"/>
      <point x="160" y="78"/>
      <point x="63" y="78" type="curve" smooth="yes"/>
      <point x="40" y="78" type="line"/>
    </contour>
    <contour>
      <point x="34" y="0" type="curve" smooth="yes"/>
      <point x="46" y="0" type="line"/>
      <point x="46" y="78" type="line"/>
      <point x="-34" y="78" type="line"/>
      <point x="-34" y="16" type="line"/>
      <point x="-23" y="10"/>
      <point x="8" y="0"/>
    </contour>
    <contour>
      <point x="425" y="0" type="curve" smooth="yes"/>
      <point x="435" y="0" type="line"/>
      <point x="435" y="78" type="line"/>
      <point x="425" y="78" type="line" smooth="yes"/>
      <point x="363" y="78"/>
      <point x="308" y="99"/>
      <point x="272" y="155" type="curve"/>
      <point x="246" y="92" type="line"/>
      <point x="281" y="34"/>
      <point x="357" y="0"/>
    </contour>
  </outline>
</glyph>
<glyph name="uni10D02.medi" format="2">
  <advance width="415"/>
  <outline>
    <contour>
      <point x="42" y="0" type="line"/>
      <point x="56" y="0" type="line" smooth="yes"/>
      <point x="247" y="0"/>
      <point x="357" y="140"/>
      <point x="357" y="332" type="curve" smooth="yes"/>
      <point x="357" y="465"/>
      <point x="295" y="536"/>
      <point x="191" y="536" type="curve" smooth="yes"/>
      <point x="100" y="536"/>
      <point x="45" y="472"/>
      <point x="45" y="395" type="curve" smooth="yes"/>
      <point x="45" y="308"/>
      <point x="120" y="245"/>
      <point x="239" y="245" type="curve" smooth="yes"/>
      <point x="284" y="245" type="line"/>
      <point x="284" y="323" type="line"/>
      <point x="250" y="323" type="line" smooth="yes"/>
      <point x="171" y="323"/>
      <point x="134" y="356"/>
      <point x="134" y="395" type="curve" smooth="yes"/>
      <point x="134" y="435"/>
      <point x="160" y="458"/>
      <point x="194" y="458" type="curve" smooth="yes"/>
      <point x="234" y="458"/>
      <point x="268" y="428"/>
      <point x="268" y="332" type="curve" smooth="yes"/>
      <point x="268" y="180"/>
      <point x="185" y="78"/>
      <point x="56" y="78" type="curve" smooth="yes"/>
      <point x="42" y="78" type="line"/>
    </contour>
    <contour>
      <point x="34" y="0" type="curve" smooth="yes"/>
      <point x="46" y="0" type="line"/>
      <point x="46" y="78" type="line"/>
      <point x="-34" y="78" type="line"/>
      <point x="-34" y="16" type="line"/>
      <point x="-23" y="10"/>
      <point x="8" y="0"/>
    </contour>
    <contour>
      <point x="439" y="0" type="curve" smooth="yes"/>
      <point x="449" y="0" type="line"/>
      <point x="449" y="78" type="line"/>
      <point x="439" y="78" type="line" smooth="yes"/>
      <point x="377" y="78"/>
      <point x="322" y="99"/>
      <point x="286" y="155" type="curve"/>
      <point x="260" y="92" type="line"/>
      <point x="295" y="34"/>
      <point x="371" y="0"/>
    </contour>
  </outline>
</glyph>
<glyph name="uni10D03.init" format="2">
  <advance width="389"/>
  <outline>
    <contour>
      <point x="41" y="0" type="line"/>
      <point x="49" y="0" type="line" smooth="yes"/>
      <point x="231" y="0"/>
      <point x="309" y="95"/>
      <point x="309" y="289" type="curve" smooth="yes"/>
      <point x="309" y="596" type="line" smooth="yes"/>
      <point x="309" y="677"/>
      <point x="256" y="714"/>
      <point x="187" y="714" type="curve" smooth="yes"/>
      <point x="125" y="714" type="line" smooth="yes"/>
      <point x="56" y="714"/>
      <point x="14" y="664"/>
      <point x="14" y="596" type="curve" smooth="yes"/>
      <point x="14" y="515" type="line"/>
      <point x="103" y="515" type="line"/>
      <point x="103" y="664" type="line"/>
      <point x="73" y="636" type="line"/>
      <point x="220" y="636" type="line"/>
      <point x="220" y="289" type="line" smooth="yes"/>
      <point x="220" y="137"/>
      <point x="172" y="78"/>
      <point x="49" y="78" type="curve" smooth="yes"/>
      <point x="41" y="78" type="line"/>
    </contour>
    <contour>
      <point x="34" y="0" type="curve" smooth="yes"/>
      <point x="46" y="0" type="line"/>
      <point x="46" y="78" type="line"/>
      <point x="-34" y="78" type="line"/>
      <point x="-34" y="16" type="line"/>
      <point x="-23" y="10"/>
      <point x="8" y="0"/>
    </contour>
  </outline>
</glyph>
<glyph name="uni10D03.medi" format="2">
  <advance width="401"/>
  <outline>
    <contour>
      <point x="41" y="0" type="line"/>
      <point x="49" y="0" type="line" smooth="yes"/>
      <point x="231" y="0"/>
      <point x="309" y="95"/>
      <point x="309" y="289" type="curve" smooth="yes"/>
      <point x="309" y="596" type="line" smooth="yes"/>
      <point x="309" y="677"/>
      <point x="256" y="714"/>
      <point x="187" y="714" type="curve" smooth="yes"/>
      <point x="125" y="714" type="line" smooth="yes"/>
      <point x="56" y="714"/>
      <point x="14" y="664"/>
      <point x="14" y="596" type="curve" smooth="yes"/>
      <point x="14" y="515" type="line"/>
      <point x="103" y="515" type="line"/>
      <point x="103" y="664" type="line"/>
      <point x="73" y="636" type="line"/>
      <point x="220" y="636" type="line"/>
      <point x="220" y="289" type="line" smooth="yes"/>
      <point x="220" y="137"/>
      <point x="172" y="78"/>
      <point x="49" y="78" type="curve" smooth="yes"/>
      <point x="41" y="78" type="line"/>
    </contour>
    <contour>
      <point x="34" y="0" type="curve" smooth="yes"/>
      <point x="46" y="0" type="line"/>
      <point x="46" y="78" type="line"/>
      <point x="-34" y="78" type="line"/>
      <point x="-34" y="16" type="line"/>
      <point x="-23" y="10"/>
      <point x="8" y="0"/>
    </contour>
    <contour>
      <point x="425" y="0" type="curve" smooth="yes"/>
      <point x="435" y="0" type="line"/>
      <point x="435" y="78" type="line"/>
      <point x="425" y="78" type="line" smooth="yes"/>
      <point x="363" y="78"/>
      <point x="308" y="99"/>
      <point x="272" y="155" type="curve"/>
      <point x="246" y="92" type="line"/>
      <point x="281" y="34"/>
      <point x="357" y="0"/>
    </contour>
  </outline>
</glyph>
<glyph name="uni10D04.init" format="2">
  <advance width="478"/>
  <outline>
    <contour>
      <point x="42" y="0" type="line"/>
      <point x="63" y="0" type="line" smooth="yes"/>
      <point x="213" y="0"/>
      <point x="299" y="75"/>
      <point x="299" y="269" type="curve" smooth="yes"/>
      <point x="299" y="635" type="line"/>
      <point x="468" y="635" type="line"/>
      <point x="468" y="713" type="line"/>
      <point x="332" y="713" type="line" smooth="yes"/>
      <point x="263" y="713"/>
      <point x="210" y="677"/>
      <point x="210" y="596" type="curve" smooth="yes"/>
      <point x="210" y="269" type="line" smooth="yes"/>
      <point x="210" y="123"/>
      <point x="161" y="78"/>
      <point x="63" y="78" type="curve" smooth="yes"/>
      <point x="42" y="78" type="line"/>
    </contour>
    <contour>
      <point x="34" y="0" type="curve" smooth="yes"/>
      <point x="46" y="0" type="line"/>
      <point x="46" y="78" type="line"/>
      <point x="-34" y="78" type="line"/>
      <point x="-34" y="16" type="line"/>
      <point x="-23" y="10"/>
      <point x="8" y="0"/>
    </contour>
  </outline>
</glyph>
<glyph name="uni10D04.medi" format="2">
  <advance width="474"/>
  <outline>
    <contour>
      <point x="42" y="0" type="line"/>
      <point x="63" y="0" type="line" smooth="yes"/>
      <point x="213" y="0"/>
      <point x="299" y="75"/>
      <point x="299" y="269" type="curve" smooth="yes"/>
      <point x="299" y="635" type="line"/>
      <point x="468" y="635" type="line"/>
      <point x="468" y="713" type="line"/>
      <point x="332" y="713" type="line" smooth="yes"/>
      <point x="263" y="713"/>
      <point x="210" y="677"/>
      <point x="210" y="596" type="curve" smooth="yes"/>
      <point x="210" y="269" type="line" smooth="yes"/>
      <point x="210" y="123"/>
      <point x="161" y="78"/>
      <point x="63" y="78" type="curve" smooth="yes"/>
      <point x="42" y="78" type="line"/>
    </contour>
    <contour>
      <point x="34" y="0" type="curve" smooth="yes"/>
      <point x="46" y="0" type="line"/>
      <point x="46" y="78" type="line"/>
      <point x="-34" y="78" type="line"/>
      <point x="-34" y="16" type="line"/>
      <point x="-23" y="10"/>
      <point x="8" y="0"/>
    </contour>
    <contour>
      <point x="418" y="0" type="curve" smooth="yes"/>
      <point x="508" y="0" type="line"/>
      <point x="508" y="78" type="line"/>
      <point x="418" y="78" type="line" smooth="yes"/>
      <point x="356" y="78"/>
      <point x="301" y="99"/>
      <point x="265" y="155" type="curve"/>
      <point x="239" y="92" type="line"/>
      <point x="274" y="34"/>
      <point x="350" y="0"/>
    </contour>
  </outline>
</glyph>
<glyph name="uni10D06.medi" format="2">
  <advance width="594"/>
  <outline>
    <contour>
      <point x="297" y="0" type="curve" smooth="yes"/>
      <point x="401" y="0"/>
      <point x="479" y="54"/>
      <point x="479" y="199" type="curve" smooth="yes"/>
      <point x="479" y="714" type="line"/>
      <point x="390" y="714" type="line"/>
      <point x="390" y="199" type="line" smooth="yes"/>
      <point x="390" y="110"/>
      <point x="352" y="78"/>
      <point x="287" y="78" type="curve" smooth="yes"/>
      <point x="227" y="78"/>
      <point x="181" y="95"/>
      <point x="139" y="119" type="curve"/>
      <point x="104" y="60" type="line"/>
      <point x="162" y="23"/>
      <point x="212" y="0"/>
    </contour>
    <contour>
      <point x="34" y="0" type="curve" smooth="yes"/>
      <point x="46" y="0" type="line"/>
      <point x="46" y="78" type="line"/>
      <point x="-34" y="78" type="line"/>
      <point x="-34" y="16" type="line"/>
      <point x="-23" y="10"/>
      <point x="8" y="0"/>
    </contour>
    <contour>
      <point x="46" y="0" type="line"/>
      <point x="109" y="0"/>
      <point x="150" y="40"/>
      <point x="220" y="128" type="curve" smooth="yes"/>
      <point x="413" y="369" type="line"/>
      <point x="413" y="494" type="line"/>
      <point x="171" y="189" type="line" smooth="yes"/>
      <point x="107" y="108"/>
      <point x="82" y="78"/>
      <point x="36" y="78" type="curve"/>
    </contour>
    <contour>
      <point x="618" y="0" type="curve" smooth="yes"/>
      <point x="628" y="0" type="line"/>
      <point x="628" y="78" type="line"/>
      <point x="618" y="78" type="line" smooth="yes"/>
      <point x="556" y="78"/>
      <point x="501" y="99"/>
      <point x="465" y="155" type="curve"/>
      <point x="439" y="92" type="line"/>
      <point x="474" y="34"/>
      <point x="550" y="0"/>
    </contour>
  </outline>
</glyph>
<glyph name="uni10D07.init" format="2">
  <advance width="700"/>
  <outline>
    <contour>
      <point x="440" y="-5" type="curve" smooth="yes"/>
      <point x="567" y="-5"/>
      <point x="655" y="77"/>
      <point x="655" y="235" type="curve" smooth="yes"/>
      <point x="655" y="432"/>
      <point x="548" y="536"/>
      <point x="428" y="536" type="curve" smooth="yes"/>
      <point x="328" y="536"/>
      <point x="262" y="463"/>
      <point x="230" y="383" type="curve"/>
      <point x="302" y="350" type="line"/>
      <point x="328" y="412"/>
      <point x="368" y="459"/>
      <point x="428" y="459" type="curve" smooth="yes"/>
      <point x="491" y="459"/>
      <point x="566" y="393"/>
      <point x="566" y="236" type="curve" smooth="yes"/>
      <point x="566" y="131"/>
      <point x="522" y="73"/>
      <point x="438" y="73" type="curve" smooth="yes"/>
      <point x="366" y="73"/>
      <point x="338" y="110"/>
      <point x="326" y="126" type="curve"/>
      <point x="259" y="67" type="line"/>
      <point x="296" y="29"/>
      <point x="349" y="-5"/>
    </contour>
    <contour>
      <point x="34" y="0" type="curve" smooth="yes"/>
      <point x="46" y="0" type="line"/>
      <point x="46" y="78" type="line"/>
      <point x="-34" y="78" type="line"/>
      <point x="-34" y="16" type="line"/>
      <point x="-23" y="10"/>
      <point x="8" y="0"/>
    </contour>
    <contour>
      <point x="43" y="0" type="line"/>
      <point x="54" y="0" type="line" smooth="yes"/>
      <point x="110" y="0"/>
      <point x="196" y="31"/>
      <point x="244" y="66" type="curve"/>
      <point x="164" y="107" type="line"/>
      <point x="132" y="89"/>
      <point x="78" y="78"/>
      <point x="43" y="78" type="curve"/>
    </contour>
    <contour>
      <point x="210" y="55" type="curve" smooth="yes"/>
      <point x="327" y="55"/>
      <point x="383" y="131"/>
      <point x="383" y="226" type="curve" smooth="yes"/>
      <point x="383" y="324"/>
      <point x="327" y="400"/>
      <point x="210" y="400" type="curve" smooth="yes"/>
      <point x="100" y="400"/>
      <point x="39" y="324"/>
      <point x="39" y="228" type="curve" smooth="yes"/>
      <point x="39" y="129"/>
      <point x="100" y="55"/>
    </contour>
    <contour>
      <point x="211" y="128" type="curve" smooth="yes"/>
      <point x="152" y="128"/>
      <point x="129" y="177"/>
      <point x="129" y="231" type="curve" smooth="yes"/>
      <point x="129" y="278"/>
      <point x="153" y="327"/>
      <point x="211" y="327" type="curve" smooth="yes"/>
      <point x="269" y="327"/>
      <point x="293" y="277"/>
      <point x="293" y="227" type="curve" smooth="yes"/>
      <point x="293" y="180"/>
      <point x="270" y="128"/>
    </contour>
  </outline>
</glyph>
<glyph name="uni10D07.medi" format="2">
  <advance width="704"/>
  <outline>
    <contour>
      <point x="440" y="-5" type="curve" smooth="yes"/>
      <point x="567" y="-5"/>
      <point x="655" y="77"/>
      <point x="655" y="235" type="curve" smooth="yes"/>
      <point x="655" y="432"/>
      <point x="548" y="536"/>
      <point x="428" y="536" type="curve" smooth="yes"/>
      <point x="328" y="536"/>
      <point x="262" y="463"/>
      <point x="230" y="383" type="curve"/>
      <point x="302" y="350" type="line"/>
      <point x="328" y="412"/>
      <point x="368" y="459"/>
      <point x="428" y="459" type="curve" smooth="yes"/>
      <point x="491" y="459"/>
      <point x="566" y="393"/>
      <point x="566" y="236" type="curve" smooth="yes"/>
      <point x="566" y="131"/>
      <point x="522" y="73"/>
      <point x="438" y="73" type="curve" smooth="yes"/>
      <point x="366" y="73"/>
      <point x="338" y="110"/>
      <point x="326" y="126" type="curve"/>
      <point x="259" y="67" type="line"/>
      <point x="296" y="29"/>
      <point x="349" y="-5"/>
    </contour>
    <contour>
      <point x="34" y="0" type="curve" smooth="yes"/>
      <point x="46" y="0" type="line"/>
      <point x="46" y="78" type="line"/>
      <point x="-34" y="78" type="line"/>
      <point x="-34" y="16" type="line"/>
      <point x="-23" y="10"/>
      <point x="8" y="0"/>
    </contour>
    <contour>
      <point x="43" y="0" type="line"/>
      <point x="54" y="0" type="line" smooth="yes"/>
      <point x="110" y="0"/>
      <point x="196" y="31"/>
      <point x="244" y="66" type="curve"/>
      <point x="164" y="107" type="line"/>
      <point x="132" y="89"/>
      <point x="78" y="78"/>
      <point x="43" y="78" type="curve"/>
    </contour>
    <contour>
      <point x="210" y="55" type="curve" smooth="yes"/>
      <point x="327" y="55"/>
      <point x="383" y="131"/>
      <point x="383" y="226" type="curve" smooth="yes"/>
      <point x="383" y="324"/>
      <point x="327" y="400"/>
      <point x="210" y="400" type="curve" smooth="yes"/>
      <point x="100" y="400"/>
      <point x="39" y="324"/>
      <point x="39" y="228" type="curve" smooth="yes"/>
      <point x="39" y="129"/>
      <point x="100" y="55"/>
    </contour>
    <contour>
      <point x="211" y="128" type="curve" smooth="yes"/>
      <point x="152" y="128"/>
      <point x="129" y="177"/>
      <point x="129" y="231" type="curve" smooth="yes"/>
      <point x="129" y="278"/>
      <point x="153" y="327"/>
      <point x="211" y="327" type="curve" smooth="yes"/>
      <point x="269" y="327"/>
      <point x="293" y="277"/>
      <point x="293" y="227" type="curve" smooth="yes"/>
      <point x="293" y="180"/>
      <point x="270" y="128"/>
    </contour>
    <contour>
      <point x="728" y="0" type="curve" smooth="yes"/>
      <point x="738" y="0" type="line"/>
      <point x="738" y="78" type="line"/>
      <point x="728" y="78" type="line" smooth="yes"/>
      <point x="666" y="78"/>
      <point x="611" y="99"/>
      <point x="575" y="155" type="curve"/>
      <point x="549" y="92" type="line"/>
      <point x="584" y="34"/>
      <point x="660" y="0"/>
    </contour>
  </outline>
</glyph>
<glyph name="uni10D08.init" format="2">
  <advance width="409"/>
  <outline>
    <contour>
      <point x="41" y="0" type="line"/>
      <point x="63" y="0" type="line" smooth="yes"/>
      <point x="275" y="0"/>
      <point x="369" y="90"/>
      <point x="369" y="239" type="curve" smooth="yes"/>
      <point x="369" y="383"/>
      <point x="270" y="478"/>
      <point x="103" y="478" type="curve"/>
      <point x="111" y="437" type="line"/>
      <point x="349" y="615" type="line"/>
      <point x="349" y="714" type="line"/>
      <point x="41" y="483" type="line"/>
      <point x="41" y="400" type="line"/>
      <point x="83" y="400" type="line" smooth="yes"/>
      <point x="214" y="400"/>
      <point x="280" y="341"/>
      <point x="280" y="239" type="curve" smooth="yes"/>
      <point x="280" y="134"/>
      <point x="223" y="78"/>
      <point x="63" y="78" type="curve" smooth="yes"/>
      <point x="41" y="78" type="line"/>
    </contour>
    <contour>
      <point x="34" y="0" type="curve" smooth="yes"/>
      <point x="46" y="0" type="line"/>
      <point x="46" y="78" type="line"/>
      <point x="-34" y="78" type="line"/>
      <point x="-34" y="16" type="line"/>
      <point x="-23" y="10"/>
      <point x="8" y="0"/>
    </contour>
  </outline>
</glyph>
<glyph name="uni10D09.init" format="2">
  <advance width="402"/>
  <outline>
    <contour>
      <point x="188" y="594" type="curve" smooth="yes"/>
      <point x="221" y="594"/>
      <point x="247" y="612"/>
      <point x="247" y="654" type="curve" smooth="yes"/>
      <point x="247" y="696"/>
      <point x="221" y="714"/>
      <point x="188" y="714" type="curve" smooth="yes"/>
      <point x="154" y="714"/>
      <point x="129" y="696"/>
      <point x="129" y="654" type="curve" smooth="yes"/>
      <point x="129" y="612"/>
      <point x="154" y="594"/>
    </contour>
    <component base="uni10D02.init"/>
  </outline>
</glyph>
<glyph name="uni10D0A.init" format="2">
  <advance width="427"/>
  <outline>
    <contour>
      <point x="37" y="0" type="line"/>
      <point x="69" y="0" type="line" smooth="yes"/>
      <point x="284" y="0"/>
      <point x="382" y="96"/>
      <point x="382" y="246" type="curve" smooth="yes"/>
      <point x="382" y="368"/>
      <point x="304" y="456"/>
      <point x="181" y="456" type="curve" smooth="yes"/>
      <point x="131" y="456"/>
      <point x="101" y="445"/>
      <point x="75" y="435" type="curve"/>
      <point x="75" y="359" type="line"/>
      <point x="104" y="370"/>
      <point x="133" y="378"/>
      <point x="174" y="378" type="curve" smooth="yes"/>
      <point x="252" y="378"/>
      <point x="293" y="324"/>
      <point x="293" y="246" type="curve" smooth="yes"/>
      <point x="293" y="140"/>
      <point x="228" y="78"/>
      <point x="69" y="78" type="curve" smooth="yes"/>
      <point x="37" y="78" type="line"/>
    </contour>
    <contour>
      <point x="34" y="0" type="curve" smooth="yes"/>
      <point x="46" y="0" type="line"/>
      <point x="46" y="78" type="line"/>
      <point x="-34" y="78" type="line"/>
      <point x="-34" y="16" type="line"/>
      <point x="-23" y="10"/>
      <point x="8" y="0"/>
    </contour>
  </outline>
</glyph>
<glyph name="uni10D0A.medi" format="2">
  <advance width="449"/>
  <outline>
    <contour>
      <point x="37" y="0" type="line"/>
      <point x="69" y="0" type="line" smooth="yes"/>
      <point x="284" y="0"/>
      <point x="382" y="96"/>
      <point x="382" y="246" type="curve" smooth="yes"/>
      <point x="382" y="368"/>
      <point x="304" y="456"/>
      <point x="181" y="456" type="curve" smooth="yes"/>
      <point x="131" y="456"/>
      <point x="101" y="445"/>
      <point x="75" y="435" type="curve"/>
      <point x="75" y="359" type="line"/>
      <point x="104" y="370"/>
      <point x="133" y="378"/>
      <point x="174" y="378" type="curve" smooth="yes"/>
      <point x="252" y="378"/>
      <point x="293" y="324"/>
      <point x="293" y="246" type="curve" smooth="yes"/>
      <point x="293" y="140"/>
      <point x="228" y="78"/>
      <point x="69" y="78" type="curve" smooth="yes"/>
      <point x="37" y="78" type="line"/>
    </contour>
    <contour>
      <point x="34" y="0" type="curve" smooth="yes"/>
      <point x="46" y="0" type="line"/>
      <point x="46" y="78" type="line"/>
      <point x="-34" y="78" type="line"/>
      <point x="-34" y="16" type="line"/>
      <point x="-23" y="10"/>
      <point x="8" y="0"/>
    </contour>
    <contour>
      <point x="473" y="0" type="curve" smooth="yes"/>
      <point x="483" y="0" type="line"/>
      <point x="483" y="78" type="line"/>
      <point x="473" y="78" type="line" smooth="yes"/>
      <point x="411" y="78"/>
      <point x="356" y="99"/>
      <point x="320" y="155" type="curve"/>
      <point x="294" y="92" type="line"/>
      <point x="329" y="34"/>
      <point x="405" y="0"/>
    </contour>
  </outline>
</glyph>
<glyph name="uni10D0B.init" format="2">
  <advance width="732"/>
  <outline>
    <contour>
      <point x="42" y="0" type="line"/>
      <point x="421" y="0" type="line" smooth="yes"/>
      <point x="582" y="0"/>
      <point x="687" y="76"/>
      <point x="687" y="214" type="curve" smooth="yes"/>
      <point x="687" y="326"/>
      <point x="624" y="400"/>
      <point x="504" y="400" type="curve" smooth="yes"/>
      <point x="381" y="400"/>
      <point x="260" y="286"/>
      <point x="181" y="196" type="curve"/>
      <point x="181" y="87" type="line"/>
      <point x="278" y="193"/>
      <point x="399" y="322"/>
      <point x="504" y="322" type="curve" smooth="yes"/>
      <point x="567" y="322"/>
      <point x="598" y="281"/>
      <point x="598" y="214" type="curve" smooth="yes"/>
      <point x="598" y="124"/>
      <point x="535" y="78"/>
      <point x="421" y="78" type="curve" smooth="yes"/>
      <point x="42" y="78" type="line"/>
    </contour>
    <contour>
      <point x="34" y="0" type="curve" smooth="yes"/>
      <point x="46" y="0" type="line"/>
      <point x="46" y="78" type="line"/>
      <point x="-34" y="78" type="line"/>
      <point x="-34" y="16" type="line"/>
      <point x="-23" y="10"/>
      <point x="8" y="0"/>
    </contour>
    <contour>
      <point x="101" y="61" type="line"/>
      <point x="190" y="61" type="line"/>
      <point x="190" y="714" type="line"/>
      <point x="101" y="714" type="line"/>
    </contour>
    <contour>
      <point x="323" y="58" type="curve"/>
      <point x="412" y="58" type="line"/>
      <point x="427" y="83"/>
      <point x="434" y="113"/>
      <point x="434" y="147" type="curve" smooth="yes"/>
      <point x="434" y="211"/>
      <point x="396" y="267"/>
      <point x="346" y="291" type="curve"/>
      <point x="290" y="240" type="line"/>
      <point x="333" y="222"/>
      <point x="354" y="185"/>
      <point x="354" y="141" type="curve" smooth="yes"/>
      <point x="354" y="111"/>
      <point x="343" y="82"/>
    </contour>
  </outline>
</glyph>
<glyph name="uni10D0B.medi" format="2">
  <advance width="718"/>
  <outline>
    <contour>
      <point x="42" y="0" type="line"/>
      <point x="421" y="0" type="line" smooth="yes"/>
      <point x="582" y="0"/>
      <point x="687" y="76"/>
      <point x="687" y="214" type="curve" smooth="yes"/>
      <point x="687" y="326"/>
      <point x="624" y="400"/>
      <point x="504" y="400" type="curve" smooth="yes"/>
      <point x="381" y="400"/>
      <point x="260" y="286"/>
      <point x="181" y="196" type="curve"/>
      <point x="181" y="87" type="line"/>
      <point x="278" y="193"/>
      <point x="399" y="322"/>
      <point x="504" y="322" type="curve" smooth="yes"/>
      <point x="567" y="322"/>
      <point x="598" y="281"/>
      <point x="598" y="214" type="curve" smooth="yes"/>
      <point x="598" y="124"/>
      <point x="535" y="78"/>
      <point x="421" y="78" type="curve" smooth="yes"/>
      <point x="42" y="78" type="line"/>
    </contour>
    <contour>
      <point x="34" y="0" type="curve" smooth="yes"/>
      <point x="46" y="0" type="line"/>
      <point x="46" y="78" type="line"/>
      <point x="-34" y="78" type="line"/>
      <point x="-34" y="16" type="line"/>
      <point x="-23" y="10"/>
      <point x="8" y="0"/>
    </contour>
    <contour>
      <point x="101" y="61" type="line"/>
      <point x="190" y="61" type="line"/>
      <point x="190" y="714" type="line"/>
      <point x="101" y="714" type="line"/>
    </contour>
    <contour>
      <point x="323" y="58" type="curve"/>
      <point x="412" y="58" type="line"/>
      <point x="427" y="83"/>
      <point x="434" y="113"/>
      <point x="434" y="147" type="curve" smooth="yes"/>
      <point x="434" y="211"/>
      <point x="396" y="267"/>
      <point x="346" y="291" type="curve"/>
      <point x="290" y="240" type="line"/>
      <point x="333" y="222"/>
      <point x="354" y="185"/>
      <point x="354" y="141" type="curve" smooth="yes"/>
      <point x="354" y="111"/>
      <point x="343" y="82"/>
    </contour>
    <contour>
      <point x="742" y="0" type="curve" smooth="yes"/>
      <point x="752" y="0" type="line"/>
      <point x="752" y="78" type="line"/>
      <point x="742" y="78" type="line" smooth="yes"/>
      <point x="680" y="78"/>
      <point x="625" y="99"/>
      <point x="589" y="155" type="curve"/>
      <point x="563" y="92" type="line"/>
      <point x="598" y="34"/>
      <point x="674" y="0"/>
    </contour>
  </outline>
</glyph>
<glyph name="uni10D0C.medi" format="2">
  <advance width="451"/>
  <outline>
    <contour>
      <point x="42" y="0" type="line"/>
      <point x="59" y="0" type="line" smooth="yes"/>
      <point x="177" y="0"/>
      <point x="246" y="77"/>
      <point x="246" y="199" type="curve" smooth="yes"/>
      <point x="246" y="544" type="line" smooth="yes"/>
      <point x="246" y="620"/>
      <point x="278" y="636"/>
      <point x="309" y="636" type="curve" smooth="yes"/>
      <point x="343" y="636"/>
      <point x="370" y="609"/>
      <point x="370" y="569" type="curve" smooth="yes"/>
      <point x="370" y="527"/>
      <point x="337" y="501"/>
      <point x="278" y="501" type="curve" smooth="yes"/>
      <point x="50" y="501" type="line"/>
      <point x="50" y="423" type="line"/>
      <point x="281" y="423" type="line" smooth="yes"/>
      <point x="388" y="423"/>
      <point x="459" y="482"/>
      <point x="459" y="569" type="curve" smooth="yes"/>
      <point x="459" y="650"/>
      <point x="400" y="714"/>
      <point x="309" y="714" type="curve" smooth="yes"/>
      <point x="214" y="714"/>
      <point x="157" y="645"/>
      <point x="157" y="544" type="curve" smooth="yes"/>
      <point x="157" y="199" type="line" smooth="yes"/>
      <point x="157" y="114"/>
      <point x="123" y="78"/>
      <point x="59" y="78" type="curve" smooth="yes"/>
      <point x="42" y="78" type="line"/>
    </contour>
    <contour>
      <point x="34" y="0" type="curve" smooth="yes"/>
      <point x="46" y="0" type="line"/>
      <point x="46" y="78" type="line"/>
      <point x="-34" y="78" type="line"/>
      <point x="-34" y="16" type="line"/>
      <point x="-23" y="10"/>
      <point x="8" y="0"/>
    </contour>
    <contour>
      <point x="395" y="0" type="curve" smooth="yes"/>
      <point x="485" y="0" type="line"/>
      <point x="485" y="78" type="line"/>
      <point x="395" y="78" type="line" smooth="yes"/>
      <point x="333" y="78"/>
      <point x="278" y="99"/>
      <point x="242" y="155" type="curve"/>
      <point x="216" y="92" type="line"/>
      <point x="251" y="34"/>
      <point x="327" y="0"/>
    </contour>
  </outline>
</glyph>
<glyph name="uni10D0D.medi" format="2">
  <advance width="718"/>
  <outline>
    <contour>
      <point x="131" y="47" type="line"/>
      <point x="220" y="47" type="line"/>
      <point x="220" y="514" type="line" smooth="yes"/>
      <point x="220" y="620"/>
      <point x="257" y="636"/>
      <point x="293" y="636" type="curve" smooth="yes"/>
      <point x="327" y="636"/>
      <point x="354" y="609"/>
      <point x="354" y="575" type="curve" smooth="yes"/>
      <point x="354" y="537"/>
      <point x="317" y="511"/>
      <point x="252" y="511" type="curve" smooth="yes"/>
      <point x="24" y="511" type="line"/>
      <point x="24" y="433" type="line"/>
      <point x="255" y="433" type="line" smooth="yes"/>
      <point x="368" y="433"/>
      <point x="443" y="482"/>
      <point x="443" y="575" type="curve" smooth="yes"/>
      <point x="443" y="650"/>
      <point x="381" y="714"/>
      <point x="290" y="714" type="curve" smooth="yes"/>
      <point x="189" y="714"/>
      <point x="131" y="645"/>
      <point x="131" y="514" type="curve" smooth="yes"/>
    </contour>
    <contour>
      <point x="34" y="0" type="curve" smooth="yes"/>
      <point x="46" y="0" type="line"/>
      <point x="46" y="78" type="line"/>
      <point x="-34" y="78" type="line"/>
      <point x="-34" y="16" type="line"/>
      <point x="-23" y="10"/>
      <point x="8" y="0"/>
    </contour>
    <contour>
      <point x="42" y="0" type="line"/>
      <point x="421" y="0" type="line" smooth="yes"/>
      <point x="582" y="0"/>
      <point x="687" y="76"/>
      <point x="687" y="214" type="curve" smooth="yes"/>
      <point x="687" y="326"/>
      <point x="624" y="400"/>
      <point x="504" y="400" type="curve" smooth="yes"/>
      <point x="381" y="400"/>
      <point x="260" y="286"/>
      <point x="181" y="196" type="curve"/>
      <point x="181" y="87" type="line"/>
      <point x="278" y="193"/>
      <point x="399" y="322"/>
      <point x="504" y="322" type="curve" smooth="yes"/>
      <point x="567" y="322"/>
      <point x="598" y="281"/>
      <point x="598" y="214" type="curve" smooth="yes"/>
      <point x="598" y="124"/>
      <point x="535" y="78"/>
      <point x="421" y="78" type="curve" smooth="yes"/>
      <point x="42" y="78" type="line"/>
    </contour>
    <contour>
      <point x="742" y="0" type="curve" smooth="yes"/>
      <point x="752" y="0" type="line"/>
      <point x="752" y="78" type="line"/>
      <point x="742" y="78" type="line" smooth="yes"/>
      <point x="680" y="78"/>
      <point x="625" y="99"/>
      <point x="589" y="155" type="curve"/>
      <point x="563" y="92" type="line"/>
      <point x="598" y="34"/>
      <point x="674" y="0"/>
    </contour>
  </outline>
</glyph>
<glyph name="uni10D0E.init" format="2">
  <advance width="479"/>
  <outline>
    <contour>
      <point x="40" y="0" type="line"/>
      <point x="95" y="0" type="line" smooth="yes"/>
      <point x="239" y="0"/>
      <point x="379" y="59"/>
      <point x="379" y="251" type="curve" smooth="yes"/>
      <point x="379" y="542" type="line" smooth="yes"/>
      <point x="379" y="656"/>
      <point x="325" y="714"/>
      <point x="241" y="714" type="curve" smooth="yes"/>
      <point x="157" y="714"/>
      <point x="101" y="656"/>
      <point x="101" y="542" type="curve" smooth="yes"/>
      <point x="101" y="251" type="line" smooth="yes"/>
      <point x="101" y="53"/>
      <point x="237" y="0"/>
      <point x="340" y="0" type="curve" smooth="yes"/>
      <point x="469" y="0" type="line"/>
      <point x="469" y="78" type="line"/>
      <point x="336" y="78" type="line" smooth="yes"/>
      <point x="274" y="78"/>
      <point x="180" y="111"/>
      <point x="180" y="251" type="curve" smooth="yes"/>
      <point x="180" y="542" type="line" smooth="yes"/>
      <point x="180" y="614"/>
      <point x="207" y="636"/>
      <point x="237" y="636" type="curve" smooth="yes"/>
      <point x="267" y="636"/>
      <point x="290" y="614"/>
      <point x="290" y="542" type="curve" smooth="yes"/>
      <point x="290" y="251" type="line" smooth="yes"/>
      <point x="290" y="111"/>
      <point x="195" y="78"/>
      <point x="99" y="78" type="curve" smooth="yes"/>
      <point x="40" y="78" type="line"/>
    </contour>
    <contour>
      <point x="34" y="0" type="curve" smooth="yes"/>
      <point x="46" y="0" type="line"/>
      <point x="46" y="78" type="line"/>
      <point x="-34" y="78" type="line"/>
      <point x="-34" y="16" type="line"/>
      <point x="-23" y="10"/>
      <point x="8" y="0"/>
    </contour>
  </outline>
</glyph>
<glyph name="uni10D0F.init" format="2">
  <advance width="442"/>
  <outline>
    <contour>
      <point x="43" y="0" type="line"/>
      <point x="115" y="0" type="line" smooth="yes"/>
      <point x="291" y="0"/>
      <point x="397" y="120"/>
      <point x="397" y="286" type="curve" smooth="yes"/>
      <point x="397" y="447"/>
      <point x="319" y="536"/>
      <point x="188" y="536" type="curve" smooth="yes"/>
      <point x="78" y="536"/>
      <point x="10" y="463"/>
      <point x="10" y="384" type="curve" smooth="yes"/>
      <point x="10" y="293"/>
      <point x="75" y="245"/>
      <point x="158" y="245" type="curve" smooth="yes"/>
      <point x="189" y="245" type="line"/>
      <point x="189" y="323" type="line"/>
      <point x="159" y="323" type="line" smooth="yes"/>
      <point x="126" y="323"/>
      <point x="99" y="342"/>
      <point x="99" y="384" type="curve" smooth="yes"/>
      <point x="99" y="428"/>
      <point x="134" y="458"/>
      <point x="188" y="458" type="curve" smooth="yes"/>
      <point x="264" y="458"/>
      <point x="308" y="401"/>
      <point x="308" y="286" type="curve" smooth="yes"/>
      <point x="308" y="160"/>
      <point x="233" y="78"/>
      <point x="115" y="78" type="curve" smooth="yes"/>
      <point x="43" y="78" type="line"/>
    </contour>
    <contour>
      <point x="34" y="0" type="curve" smooth="yes"/>
      <point x="46" y="0" type="line"/>
      <point x="46" y="78" type="line"/>
      <point x="-34" y="78" type="line"/>
      <point x="-34" y="16" type="line"/>
      <point x="-23" y="10"/>
      <point x="8" y="0"/>
    </contour>
  </outline>
</glyph>
<glyph name="uni10D10.medi" format="2">
  <advance width="654"/>
  <outline>
    <contour>
      <point x="40" y="0" type="line"/>
      <point x="49" y="0" type="line" smooth="yes"/>
      <point x="140" y="0"/>
      <point x="203" y="33"/>
      <point x="239" y="97" type="curve"/>
      <point x="212" y="96" type="line"/>
      <point x="245" y="38"/>
      <point x="316" y="0"/>
      <point x="402" y="0" type="curve" smooth="yes"/>
      <point x="571" y="0"/>
      <point x="634" y="116"/>
      <point x="634" y="279" type="curve" smooth="yes"/>
      <point x="634" y="447"/>
      <point x="546" y="536"/>
      <point x="415" y="536" type="curve" smooth="yes"/>
      <point x="305" y="536"/>
      <point x="237" y="463"/>
      <point x="237" y="384" type="curve" smooth="yes"/>
      <point x="237" y="293"/>
      <point x="302" y="245"/>
      <point x="385" y="245" type="curve" smooth="yes"/>
      <point x="416" y="245" type="line"/>
      <point x="416" y="323" type="line"/>
      <point x="386" y="323" type="line" smooth="yes"/>
      <point x="353" y="323"/>
      <point x="326" y="342"/>
      <point x="326" y="384" type="curve" smooth="yes"/>
      <point x="326" y="428"/>
      <point x="361" y="458"/>
      <point x="415" y="458" type="curve" smooth="yes"/>
      <point x="491" y="458"/>
      <point x="545" y="401"/>
      <point x="545" y="279" type="curve" smooth="yes"/>
      <point x="545" y="160"/>
      <point x="506" y="78"/>
      <point x="402" y="78" type="curve" smooth="yes"/>
      <point x="332" y="78"/>
      <point x="269" y="130"/>
      <point x="269" y="209" type="curve"/>
      <point x="180" y="209" type="line"/>
      <point x="180" y="130"/>
      <point x="140" y="78"/>
      <point x="40" y="78" type="curve"/>
    </contour>
    <contour>
      <point x="34" y="0" type="curve" smooth="yes"/>
      <point x="46" y="0" type="line"/>
      <point x="46" y="78" type="line"/>
      <point x="-34" y="78" type="line"/>
      <point x="-34" y="16" type="line"/>
      <point x="-23" y="10"/>
      <point x="8" y="0"/>
    </contour>
    <contour>
      <point x="678" y="0" type="curve" smooth="yes"/>
      <point x="688" y="0" type="line"/>
      <point x="688" y="78" type="line"/>
      <point x="678" y="78" type="line" smooth="yes"/>
      <point x="616" y="78"/>
      <point x="561" y="99"/>
      <point x="525" y="155" type="curve"/>
      <point x="499" y="92" type="line"/>
      <point x="534" y="34"/>
      <point x="610" y="0"/>
    </contour>
  </outline>
</glyph>
<glyph name="uni10D11.medi" format="2">
  <advance width="781"/>
  <outline>
    <contour>
      <point x="46" y="0" type="line"/>
      <point x="182" y="0"/>
      <point x="238" y="67"/>
      <point x="238" y="238" type="curve" smooth="yes"/>
      <point x="238" y="542" type="line" smooth="yes"/>
      <point x="238" y="614"/>
      <point x="259" y="636"/>
      <point x="288" y="636" type="curve" smooth="yes"/>
      <point x="315" y="636"/>
      <point x="338" y="620"/>
      <point x="338" y="542" type="curve" smooth="yes"/>
      <point x="338" y="205" type="line"/>
      <point x="427" y="265" type="line"/>
      <point x="427" y="542" type="line" smooth="yes"/>
      <point x="427" y="662"/>
      <point x="377" y="714"/>
      <point x="293" y="714" type="curve" smooth="yes"/>
      <point x="209" y="714"/>
      <point x="159" y="662"/>
      <point x="159" y="542" type="curve" smooth="yes"/>
      <point x="159" y="238" type="line" smooth="yes"/>
      <point x="159" y="116"/>
      <point x="130" y="78"/>
      <point x="46" y="78" type="curve"/>
    </contour>
    <contour>
      <point x="34" y="0" type="curve" smooth="yes"/>
      <point x="46" y="0" type="line"/>
      <point x="46" y="78" type="line"/>
      <point x="-34" y="78" type="line"/>
      <point x="-34" y="16" type="line"/>
      <point x="-23" y="10"/>
      <point x="8" y="0"/>
    </contour>
    <contour>
      <point x="443" y="0" type="curve" smooth="yes"/>
      <point x="471" y="0" type="line" smooth="yes"/>
      <point x="632" y="0"/>
      <point x="737" y="76"/>
      <point x="737" y="217" type="curve" smooth="yes"/>
      <point x="737" y="326"/>
      <point x="674" y="400"/>
      <point x="569" y="400" type="curve" smooth="yes"/>
      <point x="488" y="400"/>
      <point x="431" y="342"/>
      <point x="382" y="287" type="curve" smooth="yes"/>
      <point x="345" y="246"/>
      <point x="279" y="181"/>
      <point x="231" y="181" type="curve"/>
      <point x="211" y="105" type="line"/>
      <point x="304" y="108"/>
      <point x="370" y="161"/>
      <point x="452" y="245" type="curve" smooth="yes"/>
      <point x="501" y="296"/>
      <point x="526" y="322"/>
      <point x="569" y="322" type="curve" smooth="yes"/>
      <point x="617" y="322"/>
      <point x="648" y="281"/>
      <point x="648" y="217" type="curve" smooth="yes"/>
      <point x="648" y="124"/>
      <point x="585" y="78"/>
      <point x="461" y="78" type="curve" smooth="yes"/>
      <point x="439" y="78" type="line" smooth="yes"/>
      <point x="333" y="78"/>
      <point x="247" y="101"/>
      <point x="218" y="119" type="curve"/>
      <point x="183" y="60" type="line"/>
      <point x="250" y="23"/>
      <point x="338" y="0"/>
    </contour>
    <contour>
      <point x="805" y="0" type="curve" smooth="yes"/>
      <point x="815" y="0" type="line"/>
      <point x="815" y="78" type="line"/>
      <point x="805" y="78" type="line" smooth="yes"/>
      <point x="743" y="78"/>
      <point x="688" y="99"/>
      <point x="652" y="155" type="curve"/>
      <point x="626" y="92" type="line"/>
      <point x="661" y="34"/>
      <point x="737" y="0"/>
    </contour>
  </outline>
</glyph>
<glyph name="uni10D12.init" format="2">
  <advance width="537"/>
  <outline>
    <contour>
      <point x="404" y="0" type="curve" smooth="yes"/>
      <point x="507" y="0" type="line"/>
      <point x="507" y="78" type="line"/>
      <point x="404" y="78" type="line" smooth="yes"/>
      <point x="274" y="78"/>
      <point x="165" y="160"/>
      <point x="165" y="286" type="curve" smooth="yes"/>
      <point x="165" y="401"/>
      <point x="209" y="458"/>
      <point x="285" y="458" type="curve" smooth="yes"/>
      <point x="339" y="458"/>
      <point x="374" y="428"/>
      <point x="374" y="384" type="curve" smooth="yes"/>
      <point x="374" y="342"/>
      <point x="347" y="323"/>
      <point x="314" y="323" type="curve" smooth="yes"/>
      <point x="284" y="323" type="line"/>
      <point x="284" y="245" type="line"/>
      <point x="315" y="245" type="line" smooth="yes"/>
      <point x="398" y="245"/>
      <point x="463" y="293"/>
      <point x="463" y="384" type="curve" smooth="yes"/>
      <point x="463" y="463"/>
      <point x="395" y="536"/>
      <point x="285" y="536" type="curve" smooth="yes"/>
      <point x="154" y="536"/>
      <point x="76" y="447"/>
      <point x="76" y="286" type="curve" smooth="yes"/>
      <point x="76" y="116"/>
      <point x="209" y="0"/>
    </contour>
    <contour>
      <point x="34" y="0" type="curve" smooth="yes"/>
      <point x="46" y="0" type="line"/>
      <point x="46" y="78" type="line"/>
      <point x="-34" y="78" type="line"/>
      <point x="-34" y="16" type="line"/>
      <point x="-23" y="10"/>
      <point x="8" y="0"/>
    </contour>
    <contour>
      <point x="40" y="0" type="line"/>
      <point x="49" y="0" type="line" smooth="yes"/>
      <point x="140" y="0"/>
      <point x="203" y="33"/>
      <point x="239" y="97" type="curve"/>
      <point x="159" y="128" type="line"/>
      <point x="138" y="97"/>
      <point x="100" y="78"/>
      <point x="40" y="78" type="curve"/>
    </contour>
  </outline>
</glyph>
<glyph name="uni10D13.fina" format="2">
  <advance width="445"/>
  <outline>
    <contour>
      <point x="86" y="0" type="line"/>
      <point x="107" y="0" type="line" smooth="yes"/>
      <point x="263" y="0"/>
      <point x="353" y="95"/>
      <point x="353" y="289" type="curve" smooth="yes"/>
      <point x="353" y="714" type="line"/>
      <point x="264" y="714" type="line"/>
      <point x="264" y="289" type="line" smooth="yes"/>
      <point x="264" y="137"/>
      <point x="204" y="78"/>
      <point x="107" y="78" type="curve" smooth="yes"/>
      <point x="86" y="78" type="line"/>
    </contour>
    <contour>
      <point x="78" y="0" type="curve" smooth="yes"/>
      <point x="90" y="0" type="line"/>
      <point x="90" y="78" type="line"/>
      <point x="10" y="78" type="line"/>
      <point x="10" y="16" type="line"/>
      <point x="21" y="10"/>
      <point x="52" y="0"/>
    </contour>
    <contour>
      <point x="469" y="0" type="curve" smooth="yes"/>
      <point x="479" y="0" type="line"/>
      <point x="479" y="78" type="line"/>
      <point x="469" y="78" type="line" smooth="yes"/>
      <point x="407" y="78"/>
      <point x="352" y="99"/>
      <point x="316" y="155" type="curve"/>
      <point x="290" y="92" type="line"/>
      <point x="325" y="34"/>
      <point x="401" y="0"/>
    </contour>
  </outline>
</glyph>
<glyph name="uni10D13.init" format="2">
  <advance width="389"/>
  <outline>
    <contour>
      <point x="42" y="0" type="line"/>
      <point x="63" y="0" type="line" smooth="yes"/>
      <point x="219" y="0"/>
      <point x="309" y="95"/>
      <point x="309" y="289" type="curve" smooth="yes"/>
      <point x="309" y="714" type="line"/>
      <point x="220" y="714" type="line"/>
      <point x="220" y="289" type="line" smooth="yes"/>
      <point x="220" y="137"/>
      <point x="160" y="78"/>
      <point x="63" y="78" type="curve" smooth="yes"/>
      <point x="42" y="78" type="line"/>
    </contour>
    <contour>
      <point x="34" y="0" type="curve" smooth="yes"/>
      <point x="46" y="0" type="line"/>
      <point x="46" y="78" type="line"/>
      <point x="-34" y="78" type="line"/>
      <point x="-34" y="16" type="line"/>
      <point x="-23" y="10"/>
      <point x="8" y="0"/>
    </contour>
  </outline>
</glyph>
<glyph name="uni10D13.medi" format="2">
  <advance width="387"/>
  <outline>
    <contour>
      <point x="39" y="0" type="line"/>
      <point x="49" y="0" type="line" smooth="yes"/>
      <point x="186" y="0"/>
      <point x="259" y="82"/>
      <point x="259" y="242" type="curve" smooth="yes"/>
      <point x="259" y="714" type="line"/>
      <point x="170" y="714" type="line"/>
      <point x="170" y="247" type="line" smooth="yes"/>
      <point x="170" y="130"/>
      <point x="133" y="78"/>
      <point x="39" y="78" type="curve"/>
    </contour>
    <contour>
      <point x="34" y="0" type="curve" smooth="yes"/>
      <point x="46" y="0" type="line"/>
      <point x="46" y="78" type="line"/>
      <point x="-34" y="78" type="line"/>
      <point x="-34" y="16" type="line"/>
      <point x="-23" y="10"/>
      <point x="8" y="0"/>
    </contour>
    <contour>
      <point x="411" y="0" type="curve" smooth="yes"/>
      <point x="421" y="0" type="line"/>
      <point x="421" y="78" type="line"/>
      <point x="411" y="78" type="line" smooth="yes"/>
      <point x="349" y="78"/>
      <point x="294" y="99"/>
      <point x="248" y="155" type="curve"/>
      <point x="222" y="92" type="line"/>
      <point x="267" y="34"/>
      <point x="343" y="0"/>
    </contour>
  </outline>
</glyph>
<glyph name="uni10D14.fina" format="2">
  <advance width="807"/>
  <outline>
    <contour>
      <point x="86" y="0" type="line"/>
      <point x="103" y="0" type="line" smooth="yes"/>
      <point x="174" y="0"/>
      <point x="228" y="25"/>
      <point x="259" y="73" type="curve"/>
      <point x="234" y="72" type="line"/>
      <point x="262" y="28"/>
      <point x="300" y="0"/>
      <point x="361" y="0" type="curve" smooth="yes"/>
      <point x="426" y="0"/>
      <point x="489" y="51"/>
      <point x="538" y="122" type="curve" smooth="yes"/>
      <point x="676" y="323" type="line"/>
      <point x="603" y="312" type="line"/>
      <point x="634" y="292"/>
      <point x="673" y="255"/>
      <point x="673" y="174" type="curve" smooth="yes"/>
      <point x="673" y="109"/>
      <point x="632" y="78"/>
      <point x="566" y="78" type="curve" smooth="yes"/>
      <point x="524" y="78"/>
      <point x="499" y="93"/>
      <point x="469" y="116" type="curve"/>
      <point x="430" y="54" type="line"/>
      <point x="476" y="16"/>
      <point x="517" y="0"/>
      <point x="586" y="0" type="curve" smooth="yes"/>
      <point x="690" y="0"/>
      <point x="762" y="63"/>
      <point x="762" y="174" type="curve" smooth="yes"/>
      <point x="762" y="266"/>
      <point x="705" y="355"/>
      <point x="630" y="400" type="curve"/>
      <point x="470" y="170" type="line" smooth="yes"/>
      <point x="422" y="100"/>
      <point x="400" y="78"/>
      <point x="361" y="78" type="curve" smooth="yes"/>
      <point x="318" y="78"/>
      <point x="290" y="110"/>
      <point x="290" y="179" type="curve" smooth="yes"/>
      <point x="290" y="544" type="line" smooth="yes"/>
      <point x="290" y="620"/>
      <point x="322" y="636"/>
      <point x="353" y="636" type="curve" smooth="yes"/>
      <point x="387" y="636"/>
      <point x="414" y="609"/>
      <point x="414" y="569" type="curve" smooth="yes"/>
      <point x="414" y="527"/>
      <point x="381" y="501"/>
      <point x="322" y="501" type="curve" smooth="yes"/>
      <point x="94" y="501" type="line"/>
      <point x="94" y="423" type="line"/>
      <point x="325" y="423" type="line" smooth="yes"/>
      <point x="432" y="423"/>
      <point x="503" y="482"/>
      <point x="503" y="569" type="curve" smooth="yes"/>
      <point x="503" y="650"/>
      <point x="444" y="714"/>
      <point x="353" y="714" type="curve" smooth="yes"/>
      <point x="258" y="714"/>
      <point x="201" y="645"/>
      <point x="201" y="544" type="curve" smooth="yes"/>
      <point x="201" y="199" type="line" smooth="yes"/>
      <point x="201" y="114"/>
      <point x="167" y="78"/>
      <point x="103" y="78" type="curve" smooth="yes"/>
      <point x="86" y="78" type="line"/>
    </contour>
    <contour>
      <point x="78" y="0" type="curve" smooth="yes"/>
      <point x="90" y="0" type="line"/>
      <point x="90" y="78" type="line"/>
      <point x="10" y="78" type="line"/>
      <point x="10" y="16" type="line"/>
      <point x="21" y="10"/>
      <point x="52" y="0"/>
    </contour>
    <contour>
      <point x="831" y="0" type="curve" smooth="yes"/>
      <point x="841" y="0" type="line"/>
      <point x="841" y="78" type="line"/>
      <point x="831" y="78" type="line" smooth="yes"/>
      <point x="769" y="78"/>
      <point x="714" y="99"/>
      <point x="678" y="155" type="curve"/>
      <point x="652" y="92" type="line"/>
      <point x="687" y="34"/>
      <point x="763" y="0"/>
    </contour>
  </outline>
</glyph>
<glyph name="uni10D14.medi" format="2">
  <advance width="505"/>
  <outline>
    <contour>
      <point x="29" y="0" type="line"/>
      <point x="46" y="0" type="line" smooth="yes"/>
      <point x="111" y="0"/>
      <point x="174" y="51"/>
      <point x="223" y="122" type="curve" smooth="yes"/>
      <point x="361" y="323" type="line"/>
      <point x="288" y="312" type="line"/>
      <point x="319" y="292"/>
      <point x="358" y="255"/>
      <point x="358" y="174" type="curve" smooth="yes"/>
      <point x="358" y="109"/>
      <point x="317" y="78"/>
      <point x="251" y="78" type="curve" smooth="yes"/>
      <point x="209" y="78"/>
      <point x="184" y="93"/>
      <point x="154" y="116" type="curve"/>
      <point x="115" y="54" type="line"/>
      <point x="161" y="16"/>
      <point x="202" y="0"/>
      <point x="271" y="0" type="curve" smooth="yes"/>
      <point x="375" y="0"/>
      <point x="447" y="63"/>
      <point x="447" y="174" type="curve" smooth="yes"/>
      <point x="447" y="266"/>
      <point x="390" y="355"/>
      <point x="315" y="400" type="curve"/>
      <point x="155" y="170" type="line" smooth="yes"/>
      <point x="107" y="100"/>
      <point x="85" y="78"/>
      <point x="46" y="78" type="curve" smooth="yes"/>
      <point x="29" y="78" type="line"/>
    </contour>
    <contour>
      <point x="34" y="0" type="curve" smooth="yes"/>
      <point x="46" y="0" type="line"/>
      <point x="46" y="78" type="line"/>
      <point x="-34" y="78" type="line"/>
      <point x="-34" y="16" type="line"/>
      <point x="-23" y="10"/>
      <point x="8" y="0"/>
    </contour>
    <contour>
      <point x="529" y="0" type="curve" smooth="yes"/>
      <point x="539" y="0" type="line"/>
      <point x="539" y="78" type="line"/>
      <point x="529" y="78" type="line" smooth="yes"/>
      <point x="467" y="78"/>
      <point x="412" y="99"/>
      <point x="376" y="155" type="curve"/>
      <point x="350" y="92" type="line"/>
      <point x="385" y="34"/>
      <point x="461" y="0"/>
    </contour>
  </outline>
</glyph>
<glyph name="uni10D15.init" format="2">
  <advance width="757"/>
  <outline>
    <contour>
      <point x="46" y="0" type="line"/>
      <point x="182" y="0"/>
      <point x="248" y="67"/>
      <point x="248" y="238" type="curve" smooth="yes"/>
      <point x="248" y="482" type="line" smooth="yes"/>
      <point x="248" y="576"/>
      <point x="317" y="636"/>
      <point x="418" y="636" type="curve" smooth="yes"/>
      <point x="520" y="636"/>
      <point x="588" y="576"/>
      <point x="588" y="482" type="curve" smooth="yes"/>
      <point x="588" y="0" type="line"/>
      <point x="677" y="0" type="line"/>
      <point x="677" y="482" type="line" smooth="yes"/>
      <point x="677" y="632"/>
      <point x="572" y="714"/>
      <point x="418" y="714" type="curve" smooth="yes"/>
      <point x="264" y="714"/>
      <point x="159" y="632"/>
      <point x="159" y="482" type="curve" smooth="yes"/>
      <point x="159" y="238" type="line" smooth="yes"/>
      <point x="159" y="116"/>
      <point x="130" y="78"/>
      <point x="46" y="78" type="curve"/>
    </contour>
    <contour>
      <point x="34" y="0" type="curve" smooth="yes"/>
      <point x="46" y="0" type="line"/>
      <point x="46" y="78" type="line"/>
      <point x="-34" y="78" type="line"/>
      <point x="-34" y="16" type="line"/>
      <point x="-23" y="10"/>
      <point x="8" y="0"/>
    </contour>
    <contour>
      <point x="330" y="0" type="curve" smooth="yes"/>
      <point x="445" y="0"/>
      <point x="502" y="79"/>
      <point x="502" y="171" type="curve" smooth="yes"/>
      <point x="502" y="269"/>
      <point x="446" y="350"/>
      <point x="329" y="350" type="curve" smooth="yes"/>
      <point x="267" y="350"/>
      <point x="224" y="328"/>
      <point x="192" y="311" type="curve"/>
      <point x="221" y="238" type="line"/>
      <point x="252" y="261"/>
      <point x="281" y="272"/>
      <point x="320" y="272" type="curve" smooth="yes"/>
      <point x="382" y="272"/>
      <point x="413" y="231"/>
      <point x="413" y="172" type="curve" smooth="yes"/>
      <point x="413" y="119"/>
      <point x="382" y="78"/>
      <point x="330" y="78" type="curve" smooth="yes"/>
      <point x="284" y="78"/>
      <point x="250" y="99"/>
      <point x="228" y="131" type="curve"/>
      <point x="180" y="65" type="line"/>
      <point x="219" y="28"/>
      <point x="258" y="0"/>
    </contour>
  </outline>
</glyph>
<glyph name="uni10D16.init" format="2">
  <advance width="447"/>
  <outline>
    <contour>
      <point x="37" y="0" type="line"/>
      <point x="99" y="0" type="line" smooth="yes"/>
      <point x="317" y="0"/>
      <point x="402" y="79"/>
      <point x="402" y="200" type="curve" smooth="yes"/>
      <point x="402" y="305"/>
      <point x="318" y="375"/>
      <point x="197" y="375" type="curve"/>
      <point x="205" y="329" type="line"/>
      <point x="311" y="445" type="line" smooth="yes"/>
      <point x="345" y="483"/>
      <point x="368" y="527"/>
      <point x="368" y="569" type="curve" smooth="yes"/>
      <point x="368" y="650"/>
      <point x="309" y="714"/>
      <point x="218" y="714" type="curve" smooth="yes"/>
      <point x="123" y="714"/>
      <point x="66" y="652"/>
      <point x="66" y="569" type="curve" smooth="yes"/>
      <point x="66" y="481"/>
      <point x="132" y="429"/>
      <point x="218" y="429" type="curve" smooth="yes"/>
      <point x="256" y="429"/>
      <point x="287" y="450"/>
      <point x="313" y="471" type="curve"/>
      <point x="279" y="529" type="line"/>
      <point x="267" y="514"/>
      <point x="248" y="502"/>
      <point x="218" y="502" type="curve" smooth="yes"/>
      <point x="181" y="502"/>
      <point x="155" y="523"/>
      <point x="155" y="568" type="curve" smooth="yes"/>
      <point x="155" y="617"/>
      <point x="187" y="636"/>
      <point x="218" y="636" type="curve" smooth="yes"/>
      <point x="252" y="636"/>
      <point x="279" y="607"/>
      <point x="279" y="568" type="curve" smooth="yes"/>
      <point x="279" y="529"/>
      <point x="260" y="497"/>
      <point x="241" y="476" type="curve" smooth="yes"/>
      <point x="120" y="342" type="line"/>
      <point x="144" y="299" type="line"/>
      <point x="174" y="299" type="line" smooth="yes"/>
      <point x="264" y="299"/>
      <point x="313" y="260"/>
      <point x="313" y="200" type="curve" smooth="yes"/>
      <point x="313" y="131"/>
      <point x="263" y="78"/>
      <point x="99" y="78" type="curve" smooth="yes"/>
      <point x="37" y="78" type="line"/>
    </contour>
    <contour>
      <point x="34" y="0" type="curve" smooth="yes"/>
      <point x="46" y="0" type="line"/>
      <point x="46" y="78" type="line"/>
      <point x="-34" y="78" type="line"/>
      <point x="-34" y="16" type="line"/>
      <point x="-23" y="10"/>
      <point x="8" y="0"/>
    </contour>
  </outline>
</glyph>
<glyph name="uni10D17.init" format="2">
  <advance width="489"/>
  <outline>
    <contour>
      <point x="46" y="0" type="line"/>
      <point x="133" y="0" type="line" smooth="yes"/>
      <point x="308" y="0"/>
      <point x="409" y="95"/>
      <point x="409" y="289" type="curve" smooth="yes"/>
      <point x="409" y="596" type="line" smooth="yes"/>
      <point x="409" y="669"/>
      <point x="366" y="716"/>
      <point x="307" y="716" type="curve" smooth="yes"/>
      <point x="300" y="716"/>
      <point x="270" y="712"/>
      <point x="227" y="705" type="curve" smooth="yes"/>
      <point x="156" y="694" type="line" smooth="yes"/>
      <point x="36" y="675"/>
      <point x="-10" y="626"/>
      <point x="-10" y="553" type="curve" smooth="yes"/>
      <point x="-10" y="482"/>
      <point x="47" y="426"/>
      <point x="131" y="426" type="curve" smooth="yes"/>
      <point x="216" y="426"/>
      <point x="265" y="475"/>
      <point x="265" y="572" type="curve" smooth="yes"/>
      <point x="265" y="649" type="line"/>
      <point x="182" y="649" type="line"/>
      <point x="182" y="572" type="line" smooth="yes"/>
      <point x="182" y="522"/>
      <point x="162" y="504"/>
      <point x="131" y="504" type="curve" smooth="yes"/>
      <point x="100" y="504"/>
      <point x="79" y="526"/>
      <point x="79" y="556" type="curve" smooth="yes"/>
      <point x="79" y="591"/>
      <point x="99" y="603"/>
      <point x="174" y="614" type="curve" smooth="yes"/>
      <point x="320" y="636" type="line"/>
      <point x="320" y="289" type="line" smooth="yes"/>
      <point x="320" y="137"/>
      <point x="248" y="78"/>
      <point x="133" y="78" type="curve" smooth="yes"/>
      <point x="46" y="78" type="line"/>
    </contour>
    <contour>
      <point x="34" y="0" type="curve" smooth="yes"/>
      <point x="46" y="0" type="line"/>
      <point x="46" y="78" type="line"/>
      <point x="-34" y="78" type="line"/>
      <point x="-34" y="16" type="line"/>
      <point x="-23" y="10"/>
      <point x="8" y="0"/>
    </contour>
  </outline>
</glyph>
<glyph name="uni10D17.medi" format="2">
  <advance width="474"/>
  <outline>
    <contour>
      <point x="46" y="0" type="line"/>
      <point x="133" y="0" type="line" smooth="yes"/>
      <point x="308" y="0"/>
      <point x="409" y="95"/>
      <point x="409" y="289" type="curve" smooth="yes"/>
      <point x="409" y="596" type="line" smooth="yes"/>
      <point x="409" y="669"/>
      <point x="366" y="716"/>
      <point x="307" y="716" type="curve" smooth="yes"/>
      <point x="300" y="716"/>
      <point x="270" y="712"/>
      <point x="227" y="705" type="curve" smooth="yes"/>
      <point x="156" y="694" type="line" smooth="yes"/>
      <point x="36" y="675"/>
      <point x="-10" y="626"/>
      <point x="-10" y="553" type="curve" smooth="yes"/>
      <point x="-10" y="482"/>
      <point x="47" y="426"/>
      <point x="131" y="426" type="curve" smooth="yes"/>
      <point x="216" y="426"/>
      <point x="265" y="475"/>
      <point x="265" y="572" type="curve" smooth="yes"/>
      <point x="265" y="649" type="line"/>
      <point x="182" y="649" type="line"/>
      <point x="182" y="572" type="line" smooth="yes"/>
      <point x="182" y="522"/>
      <point x="162" y="504"/>
      <point x="131" y="504" type="curve" smooth="yes"/>
      <point x="100" y="504"/>
      <point x="79" y="526"/>
      <point x="79" y="556" type="curve" smooth="yes"/>
      <point x="79" y="591"/>
      <point x="99" y="603"/>
      <point x="174" y="614" type="curve" smooth="yes"/>
      <point x="320" y="636" type="line"/>
      <point x="320" y="289" type="line" smooth="yes"/>
      <point x="320" y="137"/>
      <point x="248" y="78"/>
      <point x="133" y="78" type="curve" smooth="yes"/>
      <point x="46" y="78" type="line"/>
    </contour>
    <contour>
      <point x="34" y="0" type="curve" smooth="yes"/>
      <point x="46" y="0" type="line"/>
      <point x="46" y="78" type="line"/>
      <point x="-34" y="78" type="line"/>
      <point x="-34" y="16" type="line"/>
      <point x="-23" y="10"/>
      <point x="8" y="0"/>
    </contour>
    <contour>
      <point x="498" y="0" type="curve" smooth="yes"/>
      <point x="508" y="0" type="line"/>
      <point x="508" y="78" type="line"/>
      <point x="498" y="78" type="line" smooth="yes"/>
      <point x="436" y="78"/>
      <point x="381" y="99"/>
      <point x="345" y="155" type="curve"/>
      <point x="319" y="92" type="line"/>
      <point x="354" y="34"/>
      <point x="430" y="0"/>
    </contour>
  </outline>
</glyph>
<glyph name="uni10D18.init" format="2">
  <advance width="456"/>
  <outline>
    <contour>
      <point x="46" y="0" type="line"/>
      <point x="63" y="0" type="line" smooth="yes"/>
      <point x="238" y="0"/>
      <point x="339" y="95"/>
      <point x="339" y="289" type="curve" smooth="yes"/>
      <point x="339" y="511" type="line" smooth="yes"/>
      <point x="339" y="645"/>
      <point x="277" y="714"/>
      <point x="174" y="714" type="curve" smooth="yes"/>
      <point x="81" y="714"/>
      <point x="27" y="651"/>
      <point x="27" y="573" type="curve" smooth="yes"/>
      <point x="27" y="485"/>
      <point x="102" y="423"/>
      <point x="226" y="423" type="curve" smooth="yes"/>
      <point x="446" y="423" type="line"/>
      <point x="446" y="501" type="line"/>
      <point x="238" y="501" type="line" smooth="yes"/>
      <point x="160" y="501"/>
      <point x="116" y="527"/>
      <point x="116" y="573" type="curve" smooth="yes"/>
      <point x="116" y="613"/>
      <point x="141" y="636"/>
      <point x="177" y="636" type="curve" smooth="yes"/>
      <point x="216" y="636"/>
      <point x="250" y="607"/>
      <point x="250" y="511" type="curve" smooth="yes"/>
      <point x="250" y="289" type="line" smooth="yes"/>
      <point x="250" y="137"/>
      <point x="178" y="78"/>
      <point x="63" y="78" type="curve" smooth="yes"/>
      <point x="46" y="78" type="line"/>
    </contour>
    <contour>
      <point x="34" y="0" type="curve" smooth="yes"/>
      <point x="46" y="0" type="line"/>
      <point x="46" y="78" type="line"/>
      <point x="-34" y="78" type="line"/>
      <point x="-34" y="16" type="line"/>
      <point x="-23" y="10"/>
      <point x="8" y="0"/>
    </contour>
  </outline>
</glyph>
<glyph name="uni10D19.init" format="2">
  <advance width="326"/>
  <outline>
    <contour>
      <point x="34" y="0" type="line"/>
      <point x="49" y="0" type="line" smooth="yes"/>
      <point x="173" y="0"/>
      <point x="239" y="82"/>
      <point x="239" y="247" type="curve" smooth="yes"/>
      <point x="239" y="323" type="line"/>
      <point x="150" y="323" type="line"/>
      <point x="150" y="247" type="line" smooth="yes"/>
      <point x="150" y="130"/>
      <point x="119" y="78"/>
      <point x="24" y="78" type="curve"/>
    </contour>
    <contour>
      <point x="34" y="0" type="curve" smooth="yes"/>
      <point x="46" y="0" type="line"/>
      <point x="46" y="78" type="line"/>
      <point x="-34" y="78" type="line"/>
      <point x="-34" y="16" type="line"/>
      <point x="-23" y="10"/>
      <point x="8" y="0"/>
    </contour>
    <contour>
      <point x="187" y="-162" type="curve" smooth="yes"/>
      <point x="220" y="-162"/>
      <point x="246" y="-144"/>
      <point x="246" y="-102" type="curve" smooth="yes"/>
      <point x="246" y="-60"/>
      <point x="220" y="-42"/>
      <point x="187" y="-42" type="curve" smooth="yes"/>
      <point x="153" y="-42"/>
      <point x="128" y="-60"/>
      <point x="128" y="-102" type="curve" smooth="yes"/>
      <point x="128" y="-144"/>
      <point x="153" y="-162"/>
    </contour>
  </outline>
</glyph>
<glyph name="uni10D19.medi" format="2">
  <advance width="357"/>
  <outline>
    <contour>
      <point x="34" y="0" type="line"/>
      <point x="49" y="0" type="line" smooth="yes"/>
      <point x="173" y="0"/>
      <point x="239" y="82"/>
      <point x="239" y="247" type="curve" smooth="yes"/>
      <point x="239" y="323" type="line"/>
      <point x="150" y="323" type="line"/>
      <point x="150" y="247" type="line" smooth="yes"/>
      <point x="150" y="130"/>
      <point x="119" y="78"/>
      <point x="24" y="78" type="curve"/>
    </contour>
    <contour>
      <point x="34" y="0" type="curve" smooth="yes"/>
      <point x="46" y="0" type="line"/>
      <point x="46" y="78" type="line"/>
      <point x="-34" y="78" type="line"/>
      <point x="-34" y="16" type="line"/>
      <point x="-23" y="10"/>
      <point x="8" y="0"/>
    </contour>
    <contour>
      <point x="187" y="-162" type="curve" smooth="yes"/>
      <point x="220" y="-162"/>
      <point x="246" y="-144"/>
      <point x="246" y="-102" type="curve" smooth="yes"/>
      <point x="246" y="-60"/>
      <point x="220" y="-42"/>
      <point x="187" y="-42" type="curve" smooth="yes"/>
      <point x="153" y="-42"/>
      <point x="128" y="-60"/>
      <point x="128" y="-102" type="curve" smooth="yes"/>
      <point x="128" y="-144"/>
      <point x="153" y="-162"/>
    </contour>
    <contour>
      <point x="381" y="0" type="curve" smooth="yes"/>
      <point x="391" y="0" type="line"/>
      <point x="391" y="78" type="line"/>
      <point x="381" y="78" type="line" smooth="yes"/>
      <point x="319" y="78"/>
      <point x="264" y="99"/>
      <point x="228" y="155" type="curve"/>
      <point x="202" y="92" type="line"/>
      <point x="237" y="34"/>
      <point x="313" y="0"/>
    </contour>
  </outline>
</glyph>
<glyph name="uni10D1A.init" format="2">
  <advance width="636"/>
  <outline>
    <contour>
      <point x="46" y="0" type="line"/>
      <point x="99" y="0"/>
      <point x="148" y="32"/>
      <point x="226" y="116" type="curve" smooth="yes"/>
      <point x="423" y="328" type="line"/>
      <point x="449" y="350" type="line"/>
      <point x="626" y="536" type="line"/>
      <point x="511" y="536" type="line"/>
      <point x="448" y="464" type="line"/>
      <point x="423" y="443" type="line"/>
      <point x="171" y="175" type="line" smooth="yes"/>
      <point x="102" y="101"/>
      <point x="77" y="80"/>
      <point x="26" y="78" type="curve"/>
    </contour>
    <contour>
      <point x="34" y="0" type="curve" smooth="yes"/>
      <point x="46" y="0" type="line"/>
      <point x="46" y="78" type="line"/>
      <point x="-34" y="78" type="line"/>
      <point x="-34" y="16" type="line"/>
      <point x="-23" y="10"/>
      <point x="8" y="0"/>
    </contour>
    <contour>
      <point x="297" y="0" type="curve" smooth="yes"/>
      <point x="401" y="0"/>
      <point x="479" y="54"/>
      <point x="479" y="199" type="curve" smooth="yes"/>
      <point x="479" y="714" type="line"/>
      <point x="390" y="714" type="line"/>
      <point x="390" y="199" type="line" smooth="yes"/>
      <point x="390" y="110"/>
      <point x="352" y="78"/>
      <point x="287" y="78" type="curve" smooth="yes"/>
      <point x="227" y="78"/>
      <point x="181" y="95"/>
      <point x="139" y="119" type="curve"/>
      <point x="104" y="60" type="line"/>
      <point x="162" y="23"/>
      <point x="212" y="0"/>
    </contour>
  </outline>
</glyph>
<glyph name="uni10D1B.init" format="2">
  <advance width="496"/>
  <outline>
    <contour>
      <point x="42" y="0" type="line"/>
      <point x="63" y="0" type="line" smooth="yes"/>
      <point x="233" y="0"/>
      <point x="310" y="110"/>
      <point x="310" y="289" type="curve" smooth="yes"/>
      <point x="310" y="714" type="line"/>
      <point x="221" y="714" type="line"/>
      <point x="221" y="289" type="line" smooth="yes"/>
      <point x="221" y="153"/>
      <point x="173" y="78"/>
      <point x="63" y="78" type="curve" smooth="yes"/>
      <point x="42" y="78" type="line"/>
    </contour>
    <contour>
      <point x="34" y="0" type="curve" smooth="yes"/>
      <point x="46" y="0" type="line"/>
      <point x="46" y="78" type="line"/>
      <point x="-34" y="78" type="line"/>
      <point x="-34" y="16" type="line"/>
      <point x="-23" y="10"/>
      <point x="8" y="0"/>
    </contour>
    <contour>
      <point x="397" y="364" type="line"/>
      <point x="486" y="364" type="line"/>
      <point x="486" y="419" type="line" smooth="yes"/>
      <point x="486" y="500"/>
      <point x="433" y="536"/>
      <point x="364" y="536" type="curve" smooth="yes"/>
      <point x="278" y="536" type="line"/>
      <point x="278" y="458" type="line"/>
      <point x="397" y="458" type="line"/>
    </contour>
  </outline>
</glyph>
<glyph name="uni10D1B.medi" format="2">
  <advance width="482"/>
  <outline>
    <contour>
      <point x="42" y="0" type="line"/>
      <point x="63" y="0" type="line" smooth="yes"/>
      <point x="233" y="0"/>
      <point x="310" y="110"/>
      <point x="310" y="289" type="curve" smooth="yes"/>
      <point x="310" y="714" type="line"/>
      <point x="221" y="714" type="line"/>
      <point x="221" y="289" type="line" smooth="yes"/>
      <point x="221" y="153"/>
      <point x="173" y="78"/>
      <point x="63" y="78" type="curve" smooth="yes"/>
      <point x="42" y="78" type="line"/>
    </contour>
    <contour>
      <point x="34" y="0" type="curve" smooth="yes"/>
      <point x="46" y="0" type="line"/>
      <point x="46" y="78" type="line"/>
      <point x="-34" y="78" type="line"/>
      <point x="-34" y="16" type="line"/>
      <point x="-23" y="10"/>
      <point x="8" y="0"/>
    </contour>
    <contour>
      <point x="426" y="0" type="curve" smooth="yes"/>
      <point x="516" y="0" type="line"/>
      <point x="516" y="78" type="line"/>
      <point x="426" y="78" type="line" smooth="yes"/>
      <point x="364" y="78"/>
      <point x="309" y="99"/>
      <point x="273" y="155" type="curve"/>
      <point x="247" y="92" type="line"/>
      <point x="282" y="34"/>
      <point x="358" y="0"/>
    </contour>
    <contour>
      <point x="397" y="364" type="line"/>
      <point x="486" y="364" type="line"/>
      <point x="486" y="419" type="line" smooth="yes"/>
      <point x="486" y="500"/>
      <point x="433" y="536"/>
      <point x="364" y="536" type="curve" smooth="yes"/>
      <point x="278" y="536" type="line"/>
      <point x="278" y="458" type="line"/>
      <point x="397" y="458" type="line"/>
    </contour>
  </outline>
</glyph>
<glyph name="uni10D1C.init" format="2">
  <advance width="402"/>
  <outline>
    <contour>
      <point x="190" y="714" type="curve" smooth="yes"/>
      <point x="223" y="714"/>
      <point x="249" y="732"/>
      <point x="249" y="774" type="curve" smooth="yes"/>
      <point x="249" y="816"/>
      <point x="223" y="834"/>
      <point x="190" y="834" type="curve" smooth="yes"/>
      <point x="156" y="834"/>
      <point x="131" y="816"/>
      <point x="131" y="774" type="curve" smooth="yes"/>
      <point x="131" y="732"/>
      <point x="156" y="714"/>
    </contour>
    <contour>
      <point x="90" y="584" type="curve" smooth="yes"/>
      <point x="123" y="584"/>
      <point x="149" y="602"/>
      <point x="149" y="644" type="curve" smooth="yes"/>
      <point x="149" y="686"/>
      <point x="123" y="704"/>
      <point x="90" y="704" type="curve" smooth="yes"/>
      <point x="56" y="704"/>
      <point x="31" y="686"/>
      <point x="31" y="644" type="curve" smooth="yes"/>
      <point x="31" y="602"/>
      <point x="56" y="584"/>
    </contour>
    <contour>
      <point x="290" y="584" type="curve" smooth="yes"/>
      <point x="323" y="584"/>
      <point x="349" y="602"/>
      <point x="349" y="644" type="curve" smooth="yes"/>
      <point x="349" y="686"/>
      <point x="323" y="704"/>
      <point x="290" y="704" type="curve" smooth="yes"/>
      <point x="256" y="704"/>
      <point x="231" y="686"/>
      <point x="231" y="644" type="curve" smooth="yes"/>
      <point x="231" y="602"/>
      <point x="256" y="584"/>
    </contour>
    <component base="uni10D02.init"/>
  </outline>
</glyph>
<glyph name="uni10D1C.medi" format="2">
  <advance width="415"/>
  <outline>
    <contour>
      <point x="42" y="0" type="line"/>
      <point x="56" y="0" type="line" smooth="yes"/>
      <point x="247" y="0"/>
      <point x="357" y="140"/>
      <point x="357" y="332" type="curve" smooth="yes"/>
      <point x="357" y="465"/>
      <point x="295" y="536"/>
      <point x="191" y="536" type="curve" smooth="yes"/>
      <point x="100" y="536"/>
      <point x="45" y="472"/>
      <point x="45" y="395" type="curve" smooth="yes"/>
      <point x="45" y="308"/>
      <point x="120" y="245"/>
      <point x="239" y="245" type="curve" smooth="yes"/>
      <point x="284" y="245" type="line"/>
      <point x="284" y="323" type="line"/>
      <point x="250" y="323" type="line" smooth="yes"/>
      <point x="171" y="323"/>
      <point x="134" y="356"/>
      <point x="134" y="395" type="curve" smooth="yes"/>
      <point x="134" y="435"/>
      <point x="160" y="458"/>
      <point x="194" y="458" type="curve" smooth="yes"/>
      <point x="234" y="458"/>
      <point x="268" y="428"/>
      <point x="268" y="332" type="curve" smooth="yes"/>
      <point x="268" y="180"/>
      <point x="185" y="78"/>
      <point x="56" y="78" type="curve" smooth="yes"/>
      <point x="42" y="78" type="line"/>
    </contour>
    <contour>
      <point x="34" y="0" type="curve" smooth="yes"/>
      <point x="46" y="0" type="line"/>
      <point x="46" y="78" type="line"/>
      <point x="-34" y="78" type="line"/>
      <point x="-34" y="16" type="line"/>
      <point x="-23" y="10"/>
      <point x="8" y="0"/>
    </contour>
    <contour>
      <point x="439" y="0" type="curve" smooth="yes"/>
      <point x="449" y="0" type="line"/>
      <point x="449" y="78" type="line"/>
      <point x="439" y="78" type="line" smooth="yes"/>
      <point x="377" y="78"/>
      <point x="322" y="99"/>
      <point x="286" y="155" type="curve"/>
      <point x="260" y="92" type="line"/>
      <point x="295" y="34"/>
      <point x="371" y="0"/>
    </contour>
    <contour>
      <point x="90" y="584" type="curve" smooth="yes"/>
      <point x="123" y="584"/>
      <point x="149" y="602"/>
      <point x="149" y="644" type="curve" smooth="yes"/>
      <point x="149" y="686"/>
      <point x="123" y="704"/>
      <point x="90" y="704" type="curve" smooth="yes"/>
      <point x="56" y="704"/>
      <point x="31" y="686"/>
      <point x="31" y="644" type="curve" smooth="yes"/>
      <point x="31" y="602"/>
      <point x="56" y="584"/>
    </contour>
    <contour>
      <point x="290" y="584" type="curve" smooth="yes"/>
      <point x="323" y="584"/>
      <point x="349" y="602"/>
      <point x="349" y="644" type="curve" smooth="yes"/>
      <point x="349" y="686"/>
      <point x="323" y="704"/>
      <point x="290" y="704" type="curve" smooth="yes"/>
      <point x="256" y="704"/>
      <point x="231" y="686"/>
      <point x="231" y="644" type="curve" smooth="yes"/>
      <point x="231" y="602"/>
      <point x="256" y="584"/>
    </contour>
    <contour>
      <point x="190" y="714" type="curve" smooth="yes"/>
      <point x="223" y="714"/>
      <point x="249" y="732"/>
      <point x="249" y="774" type="curve" smooth="yes"/>
      <point x="249" y="816"/>
      <point x="223" y="834"/>
      <point x="190" y="834" type="curve" smooth="yes"/>
      <point x="156" y="834"/>
      <point x="131" y="816"/>
      <point x="131" y="774" type="curve" smooth="yes"/>
      <point x="131" y="732"/>
      <point x="156" y="714"/>
    </contour>
  </outline>
</glyph>
<glyph name="uni10D1D.init" format="2">
  <advance width="527"/>
  <outline>
    <contour>
      <point x="33" y="0" type="line"/>
      <point x="280" y="0" type="line" smooth="yes"/>
      <point x="415" y="0"/>
      <point x="482" y="72"/>
      <point x="482" y="170" type="curve" smooth="yes"/>
      <point x="482" y="248"/>
      <point x="427" y="323"/>
      <point x="327" y="323" type="curve" smooth="yes"/>
      <point x="239" y="323"/>
      <point x="185" y="272"/>
      <point x="122" y="193" type="curve" smooth="yes"/>
      <point x="80" y="140"/>
      <point x="56" y="110"/>
      <point x="18" y="74" type="curve"/>
      <point x="128" y="74" type="line"/>
      <point x="150" y="98"/>
      <point x="166" y="118"/>
      <point x="201" y="163" type="curve" smooth="yes"/>
      <point x="241" y="215"/>
      <point x="274" y="245"/>
      <point x="321" y="245" type="curve" smooth="yes"/>
      <point x="361" y="245"/>
      <point x="393" y="214"/>
      <point x="393" y="166" type="curve" smooth="yes"/>
      <point x="393" y="117"/>
      <point x="366" y="78"/>
      <point x="283" y="78" type="curve" smooth="yes"/>
      <point x="33" y="78" type="line"/>
    </contour>
    <contour>
      <point x="34" y="0" type="curve" smooth="yes"/>
      <point x="46" y="0" type="line"/>
      <point x="46" y="78" type="line"/>
      <point x="-34" y="78" type="line"/>
      <point x="-34" y="16" type="line"/>
      <point x="-23" y="10"/>
      <point x="8" y="0"/>
    </contour>
  </outline>
</glyph>
<glyph name="uni10D1E.medi" format="2">
  <advance width="357"/>
  <outline>
    <contour>
      <point x="34" y="0" type="line"/>
      <point x="49" y="0" type="line" smooth="yes"/>
      <point x="173" y="0"/>
      <point x="239" y="82"/>
      <point x="239" y="247" type="curve" smooth="yes"/>
      <point x="239" y="323" type="line"/>
      <point x="150" y="323" type="line"/>
      <point x="150" y="247" type="line" smooth="yes"/>
      <point x="150" y="130"/>
      <point x="119" y="78"/>
      <point x="24" y="78" type="curve"/>
    </contour>
    <contour>
      <point x="60" y="-232" type="curve" smooth="yes"/>
      <point x="84" y="-232" type="line" smooth="yes"/>
      <point x="176" y="-232"/>
      <point x="240" y="-176"/>
      <point x="240" y="-77" type="curve" smooth="yes"/>
      <point x="240" y="-53" type="line"/>
      <point x="151" y="-53" type="line"/>
      <point x="151" y="-77" type="line" smooth="yes"/>
      <point x="151" y="-124"/>
      <point x="123" y="-154"/>
      <point x="74" y="-154" type="curve" smooth="yes"/>
      <point x="11" y="-154" type="line"/>
      <point x="11" y="-216" type="line"/>
      <point x="22" y="-224"/>
      <point x="48" y="-232"/>
    </contour>
    <contour>
      <point x="34" y="0" type="curve" smooth="yes"/>
      <point x="46" y="0" type="line"/>
      <point x="46" y="78" type="line"/>
      <point x="-34" y="78" type="line"/>
      <point x="-34" y="16" type="line"/>
      <point x="-23" y="10"/>
      <point x="8" y="0"/>
    </contour>
    <contour>
      <point x="381" y="0" type="curve" smooth="yes"/>
      <point x="391" y="0" type="line"/>
      <point x="391" y="78" type="line"/>
      <point x="381" y="78" type="line" smooth="yes"/>
      <point x="319" y="78"/>
      <point x="264" y="99"/>
      <point x="228" y="155" type="curve"/>
      <point x="202" y="92" type="line"/>
      <point x="237" y="34"/>
      <point x="313" y="0"/>
    </contour>
  </outline>
</glyph>
<glyph name="uni10D1F.medi" format="2">
  <advance width="661"/>
  <outline>
    <contour>
      <point x="34" y="0" type="curve" smooth="yes"/>
      <point x="49" y="0" type="line" smooth="yes"/>
      <point x="116" y="0"/>
      <point x="166" y="24"/>
      <point x="198" y="72" type="curve"/>
      <point x="236" y="24"/>
      <point x="299" y="0"/>
      <point x="358" y="0" type="curve" smooth="yes"/>
      <point x="373" y="0" type="line" smooth="yes"/>
      <point x="440" y="0"/>
      <point x="489" y="24"/>
      <point x="521" y="71" type="curve"/>
      <point x="560" y="26"/>
      <point x="626" y="0"/>
      <point x="685" y="0" type="curve" smooth="yes"/>
      <point x="695" y="0" type="line"/>
      <point x="695" y="78" type="line"/>
      <point x="685" y="78" type="line" smooth="yes"/>
      <point x="632" y="78"/>
      <point x="584" y="93"/>
      <point x="549" y="133" type="curve"/>
      <point x="558" y="165"/>
      <point x="563" y="203"/>
      <point x="563" y="247" type="curve" smooth="yes"/>
      <point x="563" y="323" type="line"/>
      <point x="474" y="323" type="line"/>
      <point x="474" y="247" type="line" smooth="yes"/>
      <point x="474" y="160"/>
      <point x="456" y="108"/>
      <point x="408" y="88" type="curve" smooth="yes"/>
      <point x="393" y="82"/>
      <point x="376" y="78"/>
      <point x="358" y="78" type="curve" smooth="yes"/>
      <point x="349" y="78"/>
      <point x="334" y="80"/>
      <point x="322" y="84" type="curve" smooth="yes"/>
      <point x="272" y="100"/>
      <point x="239" y="148"/>
      <point x="239" y="229" type="curve" smooth="yes"/>
      <point x="239" y="323" type="line"/>
      <point x="150" y="323" type="line"/>
      <point x="150" y="247" type="line" smooth="yes"/>
      <point x="150" y="130"/>
      <point x="119" y="78"/>
      <point x="24" y="78" type="curve" smooth="yes"/>
      <point x="-34" y="78" type="line"/>
      <point x="-34" y="16" type="line"/>
      <point x="-23" y="10"/>
      <point x="8" y="0"/>
    </contour>
  </outline>
</glyph>
<glyph name="uni10D20.init" format="2">
  <advance width="389"/>
  <outline>
    <contour>
      <point x="34" y="0" type="line"/>
      <point x="49" y="0" type="line" smooth="yes"/>
      <point x="173" y="0"/>
      <point x="239" y="82"/>
      <point x="239" y="247" type="curve" smooth="yes"/>
      <point x="239" y="323" type="line"/>
      <point x="150" y="323" type="line"/>
      <point x="150" y="247" type="line" smooth="yes"/>
      <point x="150" y="130"/>
      <point x="119" y="78"/>
      <point x="24" y="78" type="curve"/>
    </contour>
    <contour>
      <point x="34" y="0" type="curve" smooth="yes"/>
      <point x="46" y="0" type="line"/>
      <point x="46" y="78" type="line"/>
      <point x="-34" y="78" type="line"/>
      <point x="-34" y="16" type="line"/>
      <point x="-23" y="10"/>
      <point x="8" y="0"/>
    </contour>
    <contour>
      <point x="306" y="-232" type="curve" smooth="yes"/>
      <point x="330" y="-232" type="line" smooth="yes"/>
      <point x="342" y="-232"/>
      <point x="368" y="-224"/>
      <point x="379" y="-216" type="curve"/>
      <point x="379" y="-154" type="line"/>
      <point x="316" y="-154" type="line" smooth="yes"/>
      <point x="267" y="-154"/>
      <point x="239" y="-124"/>
      <point x="239" y="-77" type="curve" smooth="yes"/>
      <point x="239" y="-53" type="line"/>
      <point x="150" y="-53" type="line"/>
      <point x="150" y="-77" type="line" smooth="yes"/>
      <point x="150" y="-176"/>
      <point x="214" y="-232"/>
    </contour>
  </outline>
</glyph>
<glyph name="uni10D20.medi" format="2">
  <advance width="345"/>
  <outline>
    <contour>
      <point x="34" y="0" type="line"/>
      <point x="49" y="0" type="line" smooth="yes"/>
      <point x="173" y="0"/>
      <point x="239" y="82"/>
      <point x="239" y="247" type="curve" smooth="yes"/>
      <point x="239" y="323" type="line"/>
      <point x="150" y="323" type="line"/>
      <point x="150" y="247" type="line" smooth="yes"/>
      <point x="150" y="130"/>
      <point x="119" y="78"/>
      <point x="24" y="78" type="curve"/>
    </contour>
    <contour>
      <point x="34" y="0" type="curve" smooth="yes"/>
      <point x="46" y="0" type="line"/>
      <point x="46" y="78" type="line"/>
      <point x="-34" y="78" type="line"/>
      <point x="-34" y="16" type="line"/>
      <point x="-23" y="10"/>
      <point x="8" y="0"/>
    </contour>
    <contour>
      <point x="306" y="-232" type="curve" smooth="yes"/>
      <point x="330" y="-232" type="line" smooth="yes"/>
      <point x="342" y="-232"/>
      <point x="368" y="-224"/>
      <point x="379" y="-216" type="curve"/>
      <point x="379" y="-154" type="line"/>
      <point x="316" y="-154" type="line" smooth="yes"/>
      <point x="267" y="-154"/>
      <point x="239" y="-124"/>
      <point x="239" y="-77" type="curve" smooth="yes"/>
      <point x="239" y="-53" type="line"/>
      <point x="150" y="-53" type="line"/>
      <point x="150" y="-77" type="line" smooth="yes"/>
      <point x="150" y="-176"/>
      <point x="214" y="-232"/>
    </contour>
    <contour>
      <point x="369" y="0" type="curve" smooth="yes"/>
      <point x="379" y="0" type="line"/>
      <point x="379" y="78" type="line"/>
      <point x="369" y="78" type="line" smooth="yes"/>
      <point x="307" y="78"/>
      <point x="252" y="99"/>
      <point x="216" y="155" type="curve"/>
      <point x="190" y="92" type="line"/>
      <point x="225" y="34"/>
      <point x="301" y="0"/>
    </contour>
  </outline>
</glyph>
<glyph name="uni10D21.medi" format="2">
  <advance width="494"/>
  <outline>
    <contour>
      <point x="39" y="0" type="line"/>
      <point x="219" y="0" type="line" smooth="yes"/>
      <point x="379" y="0"/>
      <point x="439" y="67"/>
      <point x="439" y="154" type="curve" smooth="yes"/>
      <point x="439" y="246"/>
      <point x="387" y="285"/>
      <point x="293" y="295" type="curve"/>
      <point x="293" y="267" type="line"/>
      <point x="364" y="267"/>
      <point x="403" y="309"/>
      <point x="403" y="381" type="curve" smooth="yes"/>
      <point x="403" y="472"/>
      <point x="357" y="536"/>
      <point x="249" y="536" type="curve" smooth="yes"/>
      <point x="158" y="536"/>
      <point x="94" y="478"/>
      <point x="94" y="364" type="curve" smooth="yes"/>
      <point x="94" y="39" type="line"/>
      <point x="183" y="39" type="line"/>
      <point x="183" y="364" type="line" smooth="yes"/>
      <point x="183" y="434"/>
      <point x="207" y="458"/>
      <point x="249" y="458" type="curve" smooth="yes"/>
      <point x="292" y="458"/>
      <point x="314" y="434"/>
      <point x="314" y="381" type="curve" smooth="yes"/>
      <point x="314" y="335"/>
      <point x="293" y="312"/>
      <point x="236" y="312" type="curve"/>
      <point x="236" y="236" type="line"/>
      <point x="310" y="236"/>
      <point x="350" y="209"/>
      <point x="350" y="154" type="curve" smooth="yes"/>
      <point x="350" y="107"/>
      <point x="318" y="78"/>
      <point x="229" y="78" type="curve" smooth="yes"/>
      <point x="39" y="78" type="line"/>
    </contour>
    <contour>
      <point x="34" y="0" type="curve" smooth="yes"/>
      <point x="46" y="0" type="line"/>
      <point x="46" y="78" type="line"/>
      <point x="-34" y="78" type="line"/>
      <point x="-34" y="16" type="line"/>
      <point x="-23" y="10"/>
      <point x="8" y="0"/>
    </contour>
    <contour>
      <point x="518" y="0" type="curve" smooth="yes"/>
      <point x="528" y="0" type="line"/>
      <point x="528" y="78" type="line"/>
      <point x="518" y="78" type="line" smooth="yes"/>
      <point x="456" y="78"/>
      <point x="401" y="99"/>
      <point x="365" y="155" type="curve"/>
      <point x="339" y="92" type="line"/>
      <point x="374" y="34"/>
      <point x="450" y="0"/>
    </contour>
  </outline>
</glyph>
<glyph name="uni10D22.fina" format="2">
  <advance width="389"/>
  <outline>
    <contour>
      <point x="78" y="0" type="line"/>
      <point x="93" y="0" type="line" smooth="yes"/>
      <point x="217" y="0"/>
      <point x="283" y="82"/>
      <point x="283" y="247" type="curve" smooth="yes"/>
      <point x="283" y="323" type="line"/>
      <point x="194" y="323" type="line"/>
      <point x="194" y="247" type="line" smooth="yes"/>
      <point x="194" y="130"/>
      <point x="163" y="78"/>
      <point x="68" y="78" type="curve"/>
    </contour>
    <contour>
      <point x="78" y="0" type="curve" smooth="yes"/>
      <point x="90" y="0" type="line"/>
      <point x="90" y="78" type="line"/>
      <point x="10" y="78" type="line"/>
      <point x="10" y="16" type="line"/>
      <point x="21" y="10"/>
      <point x="52" y="0"/>
    </contour>
    <contour>
      <point x="413" y="0" type="curve" smooth="yes"/>
      <point x="423" y="0" type="line"/>
      <point x="423" y="78" type="line"/>
      <point x="413" y="78" type="line" smooth="yes"/>
      <point x="351" y="78"/>
      <point x="296" y="99"/>
      <point x="260" y="155" type="curve"/>
      <point x="234" y="92" type="line"/>
      <point x="269" y="34"/>
      <point x="345" y="0"/>
    </contour>
  </outline>
</glyph>
<glyph name="uni10D23.init" format="2">
  <advance width="328"/>
  <outline>
    <contour>
      <point x="34" y="0" type="line"/>
      <point x="49" y="0" type="line" smooth="yes"/>
      <point x="173" y="0"/>
      <point x="239" y="82"/>
      <point x="239" y="247" type="curve" smooth="yes"/>
      <point x="239" y="323" type="line"/>
      <point x="150" y="323" type="line"/>
      <point x="150" y="247" type="line" smooth="yes"/>
      <point x="150" y="130"/>
      <point x="119" y="78"/>
      <point x="24" y="78" type="curve"/>
    </contour>
    <contour>
      <point x="34" y="0" type="curve" smooth="yes"/>
      <point x="46" y="0" type="line"/>
      <point x="46" y="78" type="line"/>
      <point x="-34" y="78" type="line"/>
      <point x="-34" y="16" type="line"/>
      <point x="-23" y="10"/>
      <point x="8" y="0"/>
    </contour>
    <contour>
      <point x="197" y="416" type="curve" smooth="yes"/>
      <point x="227" y="416"/>
      <point x="253" y="434"/>
      <point x="253" y="476" type="curve" smooth="yes"/>
      <point x="253" y="518"/>
      <point x="227" y="536"/>
      <point x="197" y="536" type="curve" smooth="yes"/>
      <point x="166" y="536"/>
      <point x="141" y="518"/>
      <point x="141" y="476" type="curve" smooth="yes"/>
      <point x="141" y="434"/>
      <point x="166" y="416"/>
    </contour>
  </outline>
</glyph>
<glyph name="uni10D23.medi" format="2">
  <advance width="345"/>
  <outline>
    <contour>
      <point x="34" y="0" type="line"/>
      <point x="49" y="0" type="line" smooth="yes"/>
      <point x="173" y="0"/>
      <point x="239" y="82"/>
      <point x="239" y="247" type="curve" smooth="yes"/>
      <point x="239" y="323" type="line"/>
      <point x="150" y="323" type="line"/>
      <point x="150" y="247" type="line" smooth="yes"/>
      <point x="150" y="130"/>
      <point x="119" y="78"/>
      <point x="24" y="78" type="curve"/>
    </contour>
    <contour>
      <point x="34" y="0" type="curve" smooth="yes"/>
      <point x="46" y="0" type="line"/>
      <point x="46" y="78" type="line"/>
      <point x="-34" y="78" type="line"/>
      <point x="-34" y="16" type="line"/>
      <point x="-23" y="10"/>
      <point x="8" y="0"/>
    </contour>
    <contour>
      <point x="369" y="0" type="curve" smooth="yes"/>
      <point x="379" y="0" type="line"/>
      <point x="379" y="78" type="line"/>
      <point x="369" y="78" type="line" smooth="yes"/>
      <point x="307" y="78"/>
      <point x="252" y="99"/>
      <point x="216" y="155" type="curve"/>
      <point x="190" y="92" type="line"/>
      <point x="225" y="34"/>
      <point x="301" y="0"/>
    </contour>
    <contour>
      <point x="197" y="416" type="curve" smooth="yes"/>
      <point x="227" y="416"/>
      <point x="253" y="434"/>
      <point x="253" y="476" type="curve" smooth="yes"/>
      <point x="253" y="518"/>
      <point x="227" y="536"/>
      <point x="197" y="536" type="curve" smooth="yes"/>
      <point x="166" y="536"/>
      <point x="141" y="518"/>
      <point x="141" y="476" type="curve" smooth="yes"/>
      <point x="141" y="434"/>
      <point x="166" y="416"/>
    </contour>
  </outline>
</glyph>
<glyph name="uni10D26.ss01" format="2">
  <outline>
    <contour>
      <point x="-150" y="861" type="line"/>
      <point x="-128" y="894"/>
      <point x="-103" y="924"/>
      <point x="-40" y="924" type="curve" smooth="yes"/>
      <point x="-3" y="924"/>
      <point x="36" y="920"/>
      <point x="79" y="914" type="curve" smooth="yes"/>
      <point x="122" y="908"/>
      <point x="169" y="902"/>
      <point x="222" y="902" type="curve" smooth="yes"/>
      <point x="317" y="902"/>
      <point x="362" y="935"/>
      <point x="392" y="1024" type="curve"/>
      <point x="322" y="1050" type="line"/>
      <point x="304" y="1007"/>
      <point x="290" y="977"/>
      <point x="223" y="977" type="curve" smooth="yes"/>
      <point x="177" y="977"/>
      <point x="135" y="982"/>
      <point x="94" y="988" type="curve" smooth="yes"/>
      <point x="52" y="994"/>
      <point x="9" y="999"/>
      <point x="-41" y="999" type="curve" smooth="yes"/>
      <point x="-122" y="999"/>
      <point x="-178" y="961"/>
      <point x="-212" y="901" type="curve"/>
    </contour>
  </outline>
</glyph>
